<?xml version="1.0" encoding="utf-8"?>
<!-- Generator: Adobe Illustrator 22.0.0, SVG Export Plug-In . SVG Version: 6.00 Build 0)  -->
<svg version="1.1" xmlns="http://www.w3.org/2000/svg" xmlns:xlink="http://www.w3.org/1999/xlink" x="0px" y="0px"
	 viewBox="0 0 151.6 92.3" style="enable-background:new 0 0 151.6 92.3;" xml:space="preserve">
<style type="text/css">
	.st0{opacity:0.85;}
	.st1{fill:#E4F0D2;}
	.st2{fill:#F4F9EE;}
	.st3{fill:#D7E9BB;}
	.st4{fill:#CAE2A4;}
	.st5{fill:#9BCB52;}
	.st6{fill:#BFDC92;}
	.st7{fill:#B3D67E;}
	.st8{fill:#A6D168;}
	.st9{opacity:0.9;}
	.st10{fill:#F6FAEE;}
	.st11{fill:#F4F8EA;}
	.st12{fill:#F5F9EC;}
	.st13{fill:#DCEAB7;}
	.st14{fill:#E0EDC1;}
	.st15{fill:#DEEBBB;}
	.st16{fill:#E2EEC5;}
	.st17{fill:#EAF2D5;}
	.st18{fill:#E7F1CF;}
	.st19{fill:#ECF4DA;}
	.st20{fill:#F1F7E4;}
	.st21{fill:#E4F5FC;}
	.st22{fill:#F4FBFE;}
	.st23{fill:#D7F0FB;}
	.st24{fill:#B1E2F7;}
	.st25{fill:#A4DEF6;}
	.st26{fill:#C9EBFA;}
	.st27{fill:#BEE7F9;}
	.st28{fill:#96DAF5;}
	.st29{fill:#FDF59F;}
	.st30{fill:#FFF1BB;}
	.st31{fill:#FFEDA4;}
	.st32{fill:#FFE77B;}
	.st33{fill:#FFF5D2;}
	.st34{fill:#FFEA91;}
	.st35{fill:#FFE463;}
	.st36{fill:url(#SVGID_1_);}
	.st37{opacity:0.6;}
	.st38{fill:#E0F3FC;}
	.st39{opacity:0.9;fill:#B6E4F8;}
	.st40{fill:#C4E9F9;}
	.st41{fill:#D2EEFB;}
	.st42{fill:#EBF7FD;}
	.st43{fill:none;stroke:#CFEDFA;stroke-width:0;}
	.st44{fill:#F7FCFE;}
	.st45{opacity:0.8;}
	.st46{opacity:0.8;fill:#00B0F0;}
	.st47{opacity:0.8;fill:#44C8F5;}
	.st48{opacity:0.8;fill:#8ED8F8;}
	.st49{opacity:0.8;fill:#C7EAFB;}
	.st50{fill:#DFF3FD;}
	.st51{fill:#CFEDFC;}
	.st52{fill:#CCECFC;}
	.st53{fill:#E1F4FD;}
	.st54{fill:#B9E5FB;}
	.st55{fill:#B3E4FA;}
	.st56{fill:#F8F8F8;}
	.st57{fill:#F5F5F5;}
	.st58{fill:#F4F5F5;}
	.st59{fill:#F8F8F9;}
	.st60{fill:#F1F2F2;}
	.st61{fill:#F0F1F1;}
	.st62{fill:#F6CEA2;}
	.st63{opacity:0.8;fill:#C2A376;}
	.st64{opacity:0.8;fill:#D5C0A0;}
	.st65{opacity:0.8;fill:#E2D3BC;}
	.st66{opacity:0.8;fill:#EEE6D9;}
	.st67{fill:#E3D0B8;}
	.st68{fill:#EBDECD;}
	.st69{fill:#EFE4D7;}
	.st70{fill:#EDE1D2;}
	.st71{fill:#E6D5C0;}
	.st72{fill:#E7D7C3;}
	.st73{fill:#DDC4A7;}
	.st74{fill:#DFC9AE;}
	.st75{fill:#E1CCB3;}
	.st76{fill:#F4EEE6;}
	.st77{fill:#F3EAE1;}
	.st78{fill:#F8F3EE;}
	.st79{fill:#F7F1EB;}
	.st80{fill:#F7F2EC;}
	.st81{fill:#E7D6C1;}
	.st82{fill:#EADBC9;}
	.st83{fill:#E8D8C4;}
	.st84{fill:#EBDDCC;}
	.st85{fill:#EFE5D8;}
	.st86{fill:#EEE2D4;}
	.st87{fill:#F1E8DD;}
	.st88{fill:#808285;}
	.st89{fill:#EEEFF0;}
	.st90{fill:#E7E7E8;}
	.st91{fill:#DFE0E1;}
	.st92{fill:#D9DADB;}
	.st93{fill:#D2D3D5;}
	.st94{fill:#C49A6C;}
	.st95{fill:#D5BEA7;}
	.st96{fill:#E0D0C0;}
	.st97{fill:#E6D9CC;}
	.st98{fill:#E3D5C6;}
	.st99{fill:#D9C4B0;}
	.st100{fill:#DAC7B3;}
	.st101{fill:#CBAF92;}
	.st102{fill:#CFB59B;}
	.st103{fill:#D1B9A0;}
	.st104{fill:#EEE6DE;}
	.st105{fill:#EBE2D8;}
	.st106{fill:#BCBEC0;}
	.st107{fill:#E5E6E7;}
	.st108{fill:#CCCDCF;}
	.st109{fill:#C1C3C5;}
	.st110{fill:#B6B8BA;}
	.st111{fill:#C2B59B;}
	.st112{fill:#E3CFB7;}
	.st113{fill:#F6F0E9;}
	.st114{fill:#F4EDE5;}
	.st115{fill:#ECE0D0;}
	.st116{fill:#F2E9DF;}
	.st117{fill:#E4D2BB;}
	.st118{fill:#58595B;}
	.st119{fill:#BAA28C;}
	.st120{fill:#CEBCAC;}
	.st121{fill:#D7C8BB;}
	.st122{fill:#D2C2B4;}
	.st123{fill:#C1AB97;}
	.st124{fill:#C4AF9C;}
	.st125{fill:#AA8D73;}
	.st126{fill:#B1957D;}
	.st127{fill:#B59B83;}
	.st128{fill:#E5DCD3;}
	.st129{fill:#E0D5CB;}
	.st130{fill:#6D6E71;}
	.st131{fill:#603913;}
	.st132{fill:#EDE7E2;}
	.st133{fill:#C5B09E;}
	.st134{fill:#A88A6F;}
	.st135{fill:#9A795C;}
	.st136{fill:#BDBEC1;}
	.st137{fill:#D4D5D6;}
	.st138{fill:#818386;}
	.st139{fill:#6E7072;}
	.st140{fill:#A6A8AB;}
	.st141{fill:#949699;}
	.st142{fill:#5A5B5D;}
	.st143{fill:#F7941D;}
	.st144{fill:#FCECDB;}
	.st145{fill:#FDF2E6;}
	.st146{fill:#F9DDBE;}
	.st147{fill:#F8D8B5;}
	.st148{fill:#FBE6D1;}
	.st149{fill:#FAE2C8;}
	.st150{fill:#F7D3AC;}
	.st151{fill:#B9BEB6;}
	.st152{fill:#E2E3E0;}
	.st153{fill:#9AA398;}
	.st154{fill:#7D8B7C;}
	.st155{fill:#677867;}
	.st156{fill:#516654;}
	.st157{fill:#C2CEC1;}
	.st158{fill:#E6EAE4;}
	.st159{fill:#A6B9A6;}
	.st160{fill:#8BA78D;}
	.st161{fill:#76997B;}
	.st162{fill:#608B68;}
	.st163{fill:#27AAE1;}
	.st164{fill:#DCDEDF;}
	.st165{fill:#CBCCCE;}
	.st166{fill:#9B9D9F;}
	.st167{fill:#8C8E90;}
	.st168{fill:#B9BBBD;}
	.st169{fill:#AAACAF;}
	.st170{fill:#7D7F82;}
	.st171{fill:#FFFFFF;}
	.st172{fill:#009147;}
	.st173{fill:none;stroke:#58595B;stroke-miterlimit:10;}
	.st174{fill:#D5EAD0;}
	.st175{opacity:0.9;fill:#9CD093;}
	.st176{fill:#AED8A6;}
	.st177{fill:#C3E1BB;}
	.st178{fill:#E4F2E1;}
	.st179{fill:none;stroke:#BEDFB6;stroke-width:0;}
	.st180{fill:#F4FAF3;}
	.st181{fill:#9B8579;}
	.st182{fill:#FEF9F4;}
	.st183{fill:#497E57;}
	.st184{fill:#2E7346;}
	.st185{fill:#DBEDD6;}
	.st186{fill:#F1F8EF;}
	.st187{fill:#C9E4C2;}
	.st188{fill:#95CE8D;}
	.st189{fill:#84C77C;}
	.st190{fill:#B6DCAE;}
	.st191{fill:#A6D59E;}
	.st192{fill:#72C16A;}
	.st193{fill:#9A9692;}
	.st194{opacity:0.8;fill:#747678;}
	.st195{opacity:0.8;fill:#A3A5A8;}
	.st196{opacity:0.8;fill:#C0C2C4;}
	.st197{opacity:0.8;fill:#DEDFE0;}
	.st198{fill:none;stroke:#FFFFFF;stroke-width:0.5;stroke-miterlimit:10;}
	.st199{fill:none;stroke:#FFFFFF;stroke-width:0.5;stroke-miterlimit:10;stroke-dasharray:2.0019,2.0019;}
	.st200{fill:#939598;}
	.st201{fill:#3C2415;}
	.st202{fill:none;stroke:#FFFFFF;stroke-width:0.5;stroke-miterlimit:10;stroke-dasharray:2.0099,2.0099;}
	.st203{fill:none;stroke:#FFFFFF;stroke-width:0.5;stroke-miterlimit:10;stroke-dasharray:2,2;}
	.st204{fill:none;stroke:#FFFFFF;stroke-width:0.5;stroke-miterlimit:10;stroke-dasharray:2.0039,2.0039;}
	.st205{fill:none;stroke:#FFFFFF;stroke-width:0.5;stroke-miterlimit:10;stroke-dasharray:1.9993,1.9993;}
	.st206{fill:none;stroke:#FFFFFF;stroke-width:0.5;stroke-miterlimit:10;stroke-dasharray:2.0085,2.0085;}
	.st207{fill:none;stroke:#FFFFFF;stroke-width:0.5;stroke-miterlimit:10;stroke-dasharray:1.9808,1.9808;}
	.st208{fill:none;stroke:#BE1E2D;stroke-width:0.75;stroke-miterlimit:10;}
	.st209{fill:none;stroke:#BE1E2D;stroke-width:0.75;stroke-miterlimit:10;stroke-dasharray:1.9983,1.9983;}
	.st210{fill:#BE1E2D;stroke:#ED1C24;stroke-width:0.5;stroke-miterlimit:10;stroke-dasharray:2,2;}
	.st211{fill:none;stroke:#BE1E2D;stroke-width:0.75;stroke-miterlimit:10;stroke-dasharray:2.2146,2.2146;}
	.st212{fill:none;stroke:#BE1E2D;stroke-width:0.75;stroke-miterlimit:10;stroke-dasharray:2.0051,2.0051;}
	.st213{fill:#CBCBCB;}
	.st214{fill:#5D546D;}
	.st215{fill:#6E7085;}
	.st216{fill:none;}
	.st217{fill:#CCCCCC;}
	.st218{fill:#333333;}
	.st219{fill:#575858;}
	.st220{fill:#B4B4B4;}
	.st221{fill:#77715B;}
	.st222{fill:#928A70;}
	.st223{fill:#484538;}
	.st224{fill:#878787;}
	.st225{fill:#D7E4F4;}
	.st226{fill:#C7C6C5;}
	.st227{fill:#B3B3B3;fill-opacity:0.5359;}
	.st228{fill:url(#path3719_4_);}
	.st229{fill:#989898;}
	.st230{fill:#E2E3DB;}
	.st231{fill:#464646;}
	.st232{fill:url(#path3501_4_);}
	.st233{fill:#6B6B6B;}
	.st234{fill:#ACACAC;}
	.st235{opacity:0.627;fill:#BBBFB0;enable-background:new    ;}
	.st236{fill:#A0A19B;}
	.st237{fill:url(#path3753_4_);}
	.st238{fill:url(#path3841_4_);}
	.st239{opacity:0.6066;enable-background:new    ;}
	.st240{opacity:0.6167;fill:#FFFFFF;}
	.st241{opacity:0.668;enable-background:new    ;}
	.st242{fill:url(#SVGID_2_);}
	.st243{fill:#2D3D4A;}
	.st244{fill:#4C5B69;}
	.st245{fill:url(#SVGID_3_);}
	.st246{fill:#414042;}
	.st247{fill:#BBBBBB;}
	.st248{fill:#D7E3F4;}
	.st249{opacity:0.9262;enable-background:new    ;}
	.st250{fill:url(#path3719_5_);}
	.st251{fill:url(#path3501_5_);}
	.st252{fill:url(#path3753_5_);}
	.st253{fill:url(#path3841_5_);}
	.st254{fill:url(#SVGID_4_);}
	.st255{fill:url(#SVGID_5_);}
	.st256{fill:url(#path3719_6_);}
	.st257{fill:url(#path3501_6_);}
	.st258{fill:url(#path3753_6_);}
	.st259{fill:url(#path3841_6_);}
	.st260{fill:url(#SVGID_6_);}
	.st261{opacity:0.8;fill:#282829;}
	.st262{opacity:0.8;fill:#808285;}
	.st263{opacity:0.8;fill:#A7A9AC;}
	.st264{opacity:0.8;fill:#D1D3D4;}
	.st265{fill:#CFD1D2;}
	.st266{fill:#EDEDEE;}
	.st267{fill:#9D9FA2;}
	.st268{fill:#464547;}
	.st269{fill:#8A8C8E;}
	.st270{fill:#757679;}
	.st271{fill:#5F6062;}
	.st272{fill:#825B39;}
	.st273{fill:#8E694A;}
	.st274{fill:url(#SVGID_7_);}
	.st275{fill:url(#SVGID_8_);}
	.st276{fill:none;stroke:#000000;stroke-width:0.5;stroke-miterlimit:10;}
	.st277{fill:#BF9F70;}
	.st278{fill:#D1D3D4;}
	.st279{fill:none;stroke:#BF9F70;stroke-miterlimit:10;}
	.st280{fill:#FCF0E3;}
	.st281{opacity:0.9;fill:#F9DFC2;}
	.st282{fill:#FAE4CC;}
	.st283{fill:#FBEAD8;}
	.st284{fill:#FDF5EC;}
	.st285{fill:none;stroke:#FBE9D5;stroke-width:0;}
	.st286{fill:#FFFBF7;}
	.st287{fill:none;stroke:#FFFFFF;stroke-miterlimit:10;}
	.st288{fill:#F6CEA2;stroke:#BF9F70;stroke-miterlimit:10;}
	.st289{fill:#B33041;}
	.st290{fill:#ED1C24;}
	.st291{fill:#00AEEF;}
	.st292{fill:#1B75BC;}
	.st293{fill:#A97C50;}
	.st294{fill:#754C29;}
	.st295{fill:#5B5343;}
	.st296{fill:#A29277;}
	.st297{fill:#A4957F;}
	.st298{fill:#A09095;}
	.st299{fill:#988C7E;}
	.st300{fill:#6B614C;}
	.st301{fill:#A8A295;}
	.st302{fill:#645B49;}
	.st303{fill:#A2927E;}
	.st304{fill:#857667;}
	.st305{fill:#4B4330;}
	.st306{fill:#5F513E;}
	.st307{fill:#5B513D;}
	.st308{fill:#766751;}
	.st309{fill:#625442;}
	.st310{fill:#77695E;}
	.st311{fill:#CEC8BD;}
	.st312{fill:#BFB7A9;}
	.st313{fill:#AC9E8A;}
	.st314{fill:#A79D8A;}
	.st315{opacity:0.8;fill:#5F5047;}
	.st316{opacity:0.8;fill:#8D7F77;}
	.st317{opacity:0.8;fill:#ACA19B;}
	.st318{opacity:0.8;fill:#CFC9C5;}
	.st319{opacity:0.8;fill:#776B5E;}
	.st320{opacity:0.8;fill:#9F948A;}
	.st321{opacity:0.8;fill:#BAB1AA;}
	.st322{opacity:0.8;fill:#D7D2CD;}
	.st323{fill:url(#);}
	.st324{opacity:0.8;fill:#C5B89F;}
	.st325{opacity:0.8;fill:#D8CFBE;}
	.st326{opacity:0.8;fill:#E3DCD1;}
	.st327{opacity:0.8;fill:#EFEBE5;}
	.st328{opacity:0.8;fill:#FFFFFF;stroke:#594A42;stroke-miterlimit:10;}
	.st329{fill:#0A3A21;}
	.st330{fill:#006838;}
	.st331{fill:#594A42;}
	.st332{fill:#8DC63F;}
	.st333{fill:#77695E;stroke:#726658;stroke-width:0.25;stroke-miterlimit:10;}
	.st334{fill:#AC9E8A;stroke:#C2B59B;stroke-width:0.25;stroke-miterlimit:10;}
	.st335{fill:#A79D8A;stroke:#C2B59B;stroke-width:0.25;stroke-miterlimit:10;}
	.st336{fill:#A4957F;stroke:#726658;stroke-width:0.25;stroke-miterlimit:10;}
	.st337{fill:#726658;stroke:#594A42;stroke-width:0.5;stroke-miterlimit:10;}
	.st338{fill:#C2B59B;stroke:#726658;stroke-width:0.5;stroke-miterlimit:10;}
	.st339{opacity:0.8;fill:#954B60;}
	.st340{opacity:0.8;fill:#B4818B;}
	.st341{opacity:0.8;fill:#C8A4AA;}
	.st342{opacity:0.8;fill:#DFCBCE;}
	.st343{fill:#560C2A;}
	.st344{fill:#C7A2A8;}
	.st345{fill:#D6BDC0;}
	.st346{fill:#DDC9CC;}
	.st347{fill:#DAC3C6;}
	.st348{fill:#CCABB0;}
	.st349{fill:#CEAFB4;}
	.st350{fill:#BA8C95;}
	.st351{fill:#BF959D;}
	.st352{fill:#C29AA1;}
	.st353{fill:#E9DDDE;}
	.st354{fill:#E5D6D8;}
	.st355{fill:#A88389;}
	.st356{fill:#C0A6A9;}
	.st357{fill:#CCB6B9;}
	.st358{fill:#C6AEB1;}
	.st359{fill:#B08F94;}
	.st360{fill:#B49498;}
	.st361{fill:#946970;}
	.st362{fill:#9C737A;}
	.st363{fill:#A17A80;}
	.st364{fill:#DED1D2;}
	.st365{fill:#D8C8C9;}
	.st366{fill:#2B3990;}
</style>
<g id="Layer_7">
</g>
<g id="Layer_5">
</g>
<g id="Layer_2">
</g>
<g id="Layer_1">
</g>
<g id="Layer_3">
	<path class="st193" d="M142.4,37.6c-0.2-0.8-0.4-1.5-0.5-1.8h1.4l0-2c0-0.2,0-0.3-0.2-0.3h-1.4v0l0,0c0,0,0,0.1,0,0.1l0-0.1l0,0
		c-0.1-0.7-0.4-2.7-0.5-3c-0.1-0.3-0.6-0.8-0.8-1.1c-0.2-0.3-9.4-17.1-9.4-17.1l0-0.4l-0.7-0.3c0,0-0.1-0.1-0.1-0.1
		c-0.1,0-0.1,0-0.2-0.1c-4.6-1.9-8.5-4.9-13.5-5.4c-4.9-0.5-10-0.1-14.9-0.1c-9.7,0-19.6-0.6-29.2,0.6c-9.2,1.1-18.6,0.4-27.9,0.9
		C39,7.7,33.5,8.2,28,9.1c-4.8,0.7-9.2,1.1-13.4,3.6c-0.4,0.2-0.7,0.2-1,0.2l-0.7,1.1c-2,3.8-3.4,13-3.5,13.5
		c-0.1,0.1-0.4,0.3-0.6,1.1c-0.1,0.8,0,1.3,0.2,1.5L9,30.1c-0.1,0.1-0.2,0.3-0.2,0.5c0,0.2-0.4,4.9-0.4,6.1c0,1.2-0.4,6-0.4,7.5
		c0,1.5,0.2,4.6,0.2,4.7c0,0.1,0.2,3.6,0.2,3.9c0.3,1.5,0.5,3,0.8,4.6c0,0,0,0,0,0c0.3,0.1,0.6,0.1,0.7,0.2c0.3,0,0.7,0.1,0.8,0.7
		c0,0.2,0.1,0.4,0.2,0.6h0l1.5,0.3c0,0-0.4-0.8-0.4-1.1c0.1-1,0.2-3.6,0.3-4.2c0.1-0.6,0.1-0.7,1.1-0.6c1,0.1,8.6,1.6,9.7,1.7
		c1.1,0.1,1.8,0.7,1.9,1.2c0.5,1.3,0.5,1.3,1,2.9c0.5,1.6,1.5,3.2,3,3.5c1.5,0.3,34.7,7.9,35,8c-0.1-0.1-1-1.2-1-2.2
		c0-1-0.2-3,1.6-7.6c2.4-4.2,5.2-3,6.8-2.7c1.6,0.2,4.7,0.6,7.4,5.2c2.4,4.9,3.1,7.3,3.9,9.1c0,0,0.2,0.8,0.5,1l0.1,0
		c0-0.1,0.1-0.1,0.1-0.2c0-0.1,0-0.1,0.1-0.2c0,0,0,0,0,0c0-0.1,0-0.1,0.1-0.2c0,0,0,0,0,0c0-0.1,0-0.1,0.1-0.1c0,0,0,0,0,0
		c0,0,0-0.1,0.1-0.1c0,0,0,0,0,0c0,0,0-0.1,0.1-0.1c0,0,0,0,0,0c0,0,0-0.1,0.1-0.1c0,0,0,0,0,0c0,0,0,0,0,0c0,0,0,0,0,0c0,0,0,0,0,0
		c0,0,0.1-0.1,0.1-0.1c0,0,0.1-0.1,0.1-0.1c0,0,0,0,0,0c0,0,0,0,0,0c0,0,0,0,0.1,0c0,0,0,0,0,0c0,0,0.1,0,0.1-0.1c0,0,0,0,0,0
		c0,0,0.1,0,0.1-0.1c0,0,0,0,0.1,0c0,0,0,0,0,0c0,0,0,0,0.1,0c0,0,0.1,0,0.1,0c0,0,0.1,0,0.1,0c0,0,0.1,0,0.1,0c0,0,0,0,0,0
		c0,0,0.1,0,0.1,0c0,0,0,0,0,0c0,0,0,0,0,0c0,0,0.1,0,0.1,0c0,0,0.1,0,0.1,0c0,0,0.1,0,0.1,0c0,0,0.1,0,0.1,0c0,0,0.1,0,0.1,0
		c0,0,0.1,0,0.1,0c0,0,0,0,0,0c0,0,0.1,0,0.1,0c0,0,0.1,0,0.1,0c0,0,0.1,0,0.1,0c0,0,0.1,0,0.1,0c0.1,0,0.2,0,0.3,0c0,0,0,0,0,0
		c0,0,0.1,0,0.1,0c0.1,0,0.2,0,0.3,0.1c0.1,0,0.2,0,0.3,0c0.1,0,0.1,0,0.2,0c0.1,0,0.3,0,0.4,0.1c0,0,0,0,0,0c0.1,0,0.1,0,0.2,0
		c0.1,0,0.2,0,0.4,0.1c0,0,0.1,0,0.1,0c0.1,0,0.1,0,0.2,0c0,0,0,0,0,0c0.1,0,0.2,0,0.2,0c2.3,0.3,9.4,0.9,9.4,0.9l1.9,0.1
		c6.4,0.4,14.4-0.1,14.4-0.1s0,0,0,0l0,0c0,0,0.4-0.9,0.7-1.9c0.3-1,0.6-2.1,0.6-2.1s0.4,0,0.6-0.6c0.2-0.6-0.1-1.3-0.1-1.3
		s0-0.2,0.2-0.4c0.1-0.1,1.1-0.8,1.2-0.9c0.1-0.1,0.3-0.2,0.5-0.2c0.1,0,0.1,0,0.2,0c0.2,0.1,1,0.6,1.4,0.9c0,0,0,0,0.1,0.1
		c0,0,0,0,0.1,0c0,0,0,0,0,0c0,0,0,0,0.1,0.1c0,0,0,0,0,0.1c0,0,0,0,0,0c0,0,0,0,0,0c0,0,0,0,0,0c0,0,0,0,0,0c0,0,0,0,0,0
		c0.5,0,1.1,0,1.6,0c0.2,0.7,0.3,1.3,0.3,1.6c0.1,2.9,21.8,6.7,22.8-7.7C145.3,50.4,145.1,39.3,142.4,37.6z"/>
	<path class="st193" d="M82.6,36.1c0.5,0.1,1,0.1,1.5,0.2c0.3,0,0.5,0.1,0.8,0.1c0.1,0,0.2,0,0.3,0.1C84.3,36.3,83.5,36.2,82.6,36.1
		z"/>
	<g>
		<path id="rect3643_3_" marker-mid="none" marker-end="none" marker-start="none" class="st213" d="M143.6,27.6l-1.1,2.2l-0.9-0.1
			c-0.1,0-0.2-0.3-0.2-0.6l0.5-5c0-0.3,0.2-0.6,0.3-0.6l1.1,0.1c0.1,0,0.2,0.3,0.2,0.6l0,2L143.6,27.6z"/>
		<path id="rect3630_3_" marker-mid="none" marker-end="none" marker-start="none" class="st213" d="M143.4,27.6c-0.1,0-0.2,0-0.3,0
			c-0.2-0.4-0.4-0.7,0-1.4h0.7c0.5,0,0.9,0.3,0.9,0.6V27c0,0.3-0.3,0.6-0.8,0.6"/>
		<g>
			<path class="st193" d="M119.5,78.6c0-0.4,0.1-0.9,0.1-1.3C119.6,77.8,119.6,78.2,119.5,78.6L119.5,78.6z"/>
			<path class="st193" d="M144.6,60.9c0,0,0-0.2-0.2-0.2c-0.3,0-1.2,0-1.2,0l0-0.3c-1,2-2.4,3.5-4,4.3c1-0.2,2-0.4,2.6-0.5l0.7,0.2
				l0.4-0.5l1.9-1.5L144.6,60.9z"/>
			<path class="st193" d="M133.6,67.3c-0.7,0.1-1.3,0.2-2,0.2c0-0.1,0-0.1,0-0.1l-4,0.6c0,0,0,0,0,0c-2.4,0.3-4.8,0.5-7.5,0.7l0,0
				c0,0.4,0,0.8-0.1,1.3c0,0.2,0,0.5,0,0.8c0,0.1,0,0.3,0,0.4c0,0.1,0,0.1,0,0.2c0,0.4,0,0.8-0.1,1.2c0,0.1,0,0.1,0,0.2l0,0.1
				c0,0,6.2-0.6,11-1.3c4.7-0.7,9.1-2.1,9.3-2.1l0.1,0c0,0,0,0,0,0l1.9-3.8l0,0c-0.3,0.1-1,0.3-2,0.5
				C138.6,66.5,136.2,67,133.6,67.3z"/>
			<path class="st193" d="M131.4,66c-0.1,0-0.1,0-0.2,0C131.3,66,131.4,66,131.4,66L131.4,66z"/>
		</g>
		<path id="path8026_3_" marker-mid="none" marker-end="none" marker-start="none" class="st214" d="M71.2,30.2l-8-0.3l2.6-14.5
			c0.1-0.4,0.2-1,1.2-1l7.2-0.1"/>
		<path id="path3448_3_" marker-mid="none" marker-end="none" marker-start="none" class="st215" d="M74.9,14.7l-0.1,0.6l1.2,0
			l2.4,10.9c0,0-3.8,0.1-4.4,0.1c-0.6,0-1.2,0.3-1.3,0.6l-0.5,3.1l11.4,0.4l-0.6-5.4l-1.7-8.8c-0.1-0.3-0.2-0.9,0.6-0.9l-0.1-0.5
			L74.9,14.7z"/>
		<path id="path3230_3_" marker-mid="none" marker-end="none" marker-start="none" class="st216" d="M90.3,14.5
			c-0.3-1.1-0.8-1-1.7-1l-21.5,0.2c-1.4-0.1-1.7,1.1-1.8,1.6l-2.7,15.1"/>
		<path id="path3589_3_" marker-mid="none" marker-end="none" marker-start="none" class="st217" d="M146.5,61
			c-0.6,0-0.7,0.1-0.9,0.7c-0.2,0.6-0.5,0.7-0.5,0.7v0c0,0,0.1,0,0.1,0v0c0.7,0.2,0.9,1,0.9,1.5c0,0.2-0.1,1.7-0.1,3.4l0,0
			c0-0.1,0-0.3,0-0.4l0,0c0,0,0.3,0,0.7,1c0,0,0,0,0,0c0-0.1,0.6-4.7,0.6-5.8C147.2,61.1,146.7,61,146.5,61
			C146.5,61,146.5,61,146.5,61z"/>
		<path id="path7040_3_" marker-mid="none" marker-end="none" marker-start="none" class="st217" d="M131,71.5
			c-4.8,0.7-11,1.3-11,1.3l0-0.1c-0.1,2.5-0.3,5.4-0.6,6.8c8.7-0.4,22.6-3.6,22.7-4c0.1-0.3,1.1-1.7,1.1-2.3c0-0.6-0.8-2.7-1.3-3.3
			c-0.5-0.6-1.6-0.6-1.6-0.6l-0.1,0C140.1,69.5,135.7,70.8,131,71.5z"/>
		<path id="path3289_3_" marker-mid="none" marker-end="none" marker-start="none" class="st218" d="M15.8,63.5
			c0.6,6.2,3.4,11.2,6.3,11c2.3,0.2,5.2-0.4,5.2-0.4c3.2-0.4,5-4.6,4.6-10.3l-2.4-0.5c-0.2-0.1-0.3-0.1-0.3-0.3l-0.1-0.3
			c0,0-0.1,0-0.1,0c-1.5-0.3-2.5-1.9-3-3.5c-0.5-1.6-0.5-1.5-1-2.9c-0.1-0.5-0.8-1.1-1.9-1.2c-0.6-0.1-3.3-0.6-5.8-1
			C16.1,56,15.4,59.5,15.8,63.5z"/>
		<path id="path3185_3_" marker-mid="none" marker-end="none" marker-start="none" class="st219" d="M15.8,63.5c0.3,3.2,1.2,6,2.3,8
			c0,0,0,0,0,0.1c0,0,0,0.1,0.1,0.1c0,0,0,0,0,0.1c0,0,0.1,0.1,0.1,0.1c0,0.1,0.1,0.1,0.1,0.2c0,0,0,0,0,0c0,0,0.1,0.1,0.1,0.1
			c0,0.1,0.1,0.1,0.1,0.2c1,1.4,2.2,2.2,3.4,2.1c1.8-0.1,3.2-2.1,3.9-5c0,0,0,0,0,0c0-0.1,0-0.1,0-0.2c0.4-1.8,0.6-4,0.4-6.4l0-0.2
			c-0.2-2.8-0.9-5.3-1.9-7.2c-0.3-0.3-0.8-0.5-1.4-0.5c-0.6-0.1-3.3-0.6-5.8-1C16.1,56,15.4,59.5,15.8,63.5z"/>
		<path id="path3183_3_" marker-mid="none" marker-end="none" marker-start="none" class="st171" d="M20.9,56.1c2-0.1,3.7,3,3.8,7.1
			s-1.5,7.4-3.5,7.5s-3.7-3-3.8-7.1S18.9,56.2,20.9,56.1z"/>
		<path id="path3871_3_" marker-mid="none" marker-end="none" marker-start="none" class="st220" d="M20.8,56.3
			c1.8-0.1,3.4,2.9,3.4,6.8c0.1,3.9-1.4,7.1-3.2,7.2c-1.8,0.1-3.4-2.9-3.4-6.8C17.5,59.6,18.9,56.4,20.8,56.3z"/>
		<path id="path4167_3_" marker-mid="none" marker-end="none" marker-start="none" class="st218" d="M12.3,53.7
			C12.2,54.3,12.1,57,12,58c0,0.2,0.4,1.1,0.4,1.1l3.4-0.2c0.2-2,0.8-3.7,1.5-5c-1.8-0.3-3.5-0.7-3.9-0.7c-0.2,0-0.4-0.1-0.6-0.1
			C12.4,53.1,12.4,53.3,12.3,53.7z"/>
		<path id="path2393_3_" marker-mid="none" marker-end="none" marker-start="none" class="st217" d="M7.3,56.9
			c0.1,0.2,0.1,0.3,0.1,0.3c-0.1,0.3-0.5,0.7-1,0.8c0,0,0-0.1-0.1-0.2l0,0l0,0c0,0-0.4,1.2-0.4,1.6c0,0.5,0.4,1.2,0.6,1.6
			c0.2,0.4,0.3,0.5,0.5,0.5c0.2,0.1,2.3,0.5,2.9,0.6c0.6,0.1,0.7-0.1,0.7-0.2c0.1-0.1,0.5-1.1,0.5-1.5c0-0.3-0.2-1-0.3-1.7
			c-0.1-0.3-0.1-0.5-0.2-0.6c-0.1-0.5-0.5-0.6-0.8-0.7c-0.1,0-0.4-0.1-0.7-0.2c0,0,0,0,0,0c-0.3-0.1-0.7-0.2-0.9-0.2
			c-0.3-0.1,0-0.2,0.1-0.3c0.1,0,0.5-0.1,0.6-0.2c0-0.1,0-0.1,0-0.2C8.8,56.5,7.9,56.6,7.3,56.9z"/>
		<path id="path2397_3_" class="st221" d="M11.2,36L11.2,36c0,0.5,0.1,0.6,0.4,0.7c0.3,0,3.6,0.3,4.1,0.3c0.3,0,0.6,0.1,0.8,0
			c0.1-0.1,0.1-0.5,0.1-0.5L11.2,36z"/>
		<path id="path2403_3_" marker-mid="none" marker-end="none" marker-start="none" class="st221" d="M29.1,62.5l0.1,0.3
			c0.1,0.2,0.1,0.3,0.3,0.3l8.3,1.9l8.5,2L63.1,71c0.2,0.1,0.3,0,0.3-0.2l0-0.4L29.1,62.5z"/>
		<path id="path3194_3_" class="st220" d="M6.5,52.2c-0.9,0.3-1.4,1.1-1.5,1.8c-0.1,0.7,0.1,1.4,0.3,1.9c0.4,0.7,1,2,1,2
			c0.5-0.1,0.9-0.5,1-0.8c0,0-0.5-1.1-1-1.8c-0.1-0.2-0.3-0.7-0.2-1.1c0.1-0.4,0.3-0.7,0.8-0.9c0.4-0.2,1-0.2,1.4-0.3
			c0-0.1,0-0.2-0.1-0.3c0-0.1,0-0.4-0.1-0.8C7.7,51.9,7,52.1,6.5,52.2z"/>
		<path id="path3202_3_" marker-mid="none" marker-end="none" marker-start="none" class="st216" d="M61.7,70
			c-0.7,0.2-0.8-2.6-0.8-3.8c0-1.1-0.2-11.1-0.2-11.1l0.4-13.2 M61.1,40.8l0.4-6.7c-0.5-0.6-0.2-1.7-0.1-2.3
			c0.1-0.7,0.8-1.4,1.1-1.3"/>
		<path id="path3206_3_" marker-mid="none" marker-end="none" marker-start="none" class="st216" d="M97.3,69l0,3.9"/>
		<path id="path3257_3_" marker-mid="none" marker-end="none" marker-start="none" class="st222" d="M95.6,38.4l-0.2-1.8l-2,0.2
			l0.2,1.8L95.6,38.4z"/>
		<path id="path3208_3_" marker-mid="none" marker-end="none" marker-start="none" class="st216" d="M97.3,69.1L96,69l0-2.6l1.3,0
			c0,0,0-8.4,0-9.3c-0.2-4.1-0.8-13-1.6-18l-1-7.3l-5.1-20.1"/>
		<path id="path3242_3_" marker-mid="none" marker-end="none" marker-start="none" class="st214" d="M61.2,13.5l-9.3,0.1
			c-1.3,0-1.3,0.9-1.5,1.6c-1,4.3-1.8,8.6-2.5,12.9c-0.1,1,0,1.6,1.1,1.7l9.3,0.5c1.3,0.1,1.4-0.8,1.6-1.5c0,0,0.8-5.5,1.1-7.4
			c0.3-1.9,1.3-6.2,1.3-6.2c0.3-1.4-0.1-1.8-0.8-1.8C61.4,13.5,61.3,13.5,61.2,13.5z M46.8,13.7c-1.4,0.1-7.4,0.1-7.7,0.1
			c-0.3,0-1.7-0.2-2,1.4c-0.3,1.6-1.9,10.6-2.1,11.6c-0.1,0.9-0.3,2.1,0.6,2.2c0.8,0.1,7,0.4,7.5,0.4c0.5,0,1.9,0.5,2.2-1.3
			c0.3-1.8,1.1-7,1.2-7.7c0.1-0.7,1.1-4.9,1.1-4.9C47.6,15.6,48.2,13.7,46.8,13.7C46.8,13.7,46.8,13.7,46.8,13.7z M33.9,14.1
			c-1.3,0.1-6.5,0.1-6.7,0.1c-0.2,0-1.5-0.1-1.7,1.4c-0.3,1.5-1.8,9.9-2,10.8c-0.2,0.9-0.4,2,0.6,2.1c0.7,0,6,0.4,6.5,0.4
			c0.5,0,1.7,0.3,1.9-1.2c0.3-1.7,1.2-6.6,1.3-7.3c0.1-0.7,0.8-4.4,0.8-4.4C34.6,15.8,35.1,14.1,33.9,14.1
			C33.9,14.1,33.9,14.1,33.9,14.1z"/>
		<path id="path3277_3_" marker-mid="none" marker-end="none" marker-start="none" class="st218" d="M12,58c0-0.1,0-0.3,0-0.4
			C12,57.7,12,57.8,12,58z M10.9,58.7c0.1,0.6,0.3,1.4,0.3,1.7c0,0.1,0,0.2-0.1,0.4l0,0l2.6-0.4l0.4,0.2c0.7-0.3,1.6-0.6,1.6-0.6
			c0-0.4,0.1-0.8,0.1-1.1L12.4,59L10.9,58.7L10.9,58.7z"/>
		<path id="path3293_3_" marker-mid="none" marker-end="none" marker-start="none" class="st223" d="M31.9,63.7c0,0.2,0,0.5,0,0.7
			l1.7-0.4L31.9,63.7C31.9,63.7,31.9,63.7,31.9,63.7z"/>
		<path id="path3299_3_" marker-mid="none" marker-end="none" marker-start="none" class="st218" d="M64.6,60.7
			c-1.7,4.6-1.6,6.7-1.6,7.6c0,1,1,2.2,1,2.2l0.1,0c0,0.1-0.5,1.4-0.5,1.5c0,0.1,0.4,0.4,0.6,0.6c0.2,0.2,0.3,0,0.4,0l0.4-0.4
			c0.3-6.4,3.6-11.4,8-11.9c0.2,0,0.5,0,0.7,0c1.3,0,2.5,0.4,3.7,1.1c-2.3-2.8-4.7-3.1-6-3.3c-0.7-0.1-1.5-0.4-2.5-0.4
			C67.6,57.6,66.1,58.2,64.6,60.7z"/>
		<path id="path3873_3_" marker-mid="none" marker-end="none" marker-start="none" class="st171" d="M20.8,58.4
			c-0.4,0-0.7,0.2-1,0.4c-0.3,0.3-1.4,1.1-1.4,4.2c0,2.4,1.7,4.1,2.2,4.4c0.5,0.3,0.7,0.4,1,0.4c1.3-0.1,2.1-2.3,1.9-4.9
			c-0.2-2.5-1.4-4.6-2.6-4.6C20.9,58.4,20.8,58.4,20.8,58.4z"/>
		<path id="path3880_3_" marker-mid="none" marker-end="none" marker-start="none" class="st224" d="M20.9,57.4
			c-0.8,0.1-1.4,0.9-1.8,2.2v0c0.3-0.5,0.6-0.7,0.7-0.8c0.3-0.3,0.6-0.4,1-0.4c0,0,0.1,0,0.1,0c1.2,0.1,2.4,2.1,2.6,4.6
			c0.2,2.6-0.6,4.8-1.9,4.9c-0.4,0-0.6-0.1-1-0.4c-0.2-0.2-0.7-0.6-1.2-1.2l0,0c0.6,1.7,1.5,2.8,2.4,2.7c1.4-0.1,2.3-2.7,2-5.9
			C23.7,59.9,22.3,57.4,20.9,57.4C21,57.4,20.9,57.4,20.9,57.4z"/>
		<path id="path3885_3_" marker-mid="none" marker-end="none" marker-start="none" class="st214" d="M74.6,14.3l-3,16l0.3,0l0.1,0
			l11.5,0.4l-0.1-0.4l-11.4-0.4l2.7-15.2l6.9,0l-0.1-0.5L74.6,14.3z"/>
		<path id="path3207_3_" marker-mid="none" marker-end="none" marker-start="none" class="st225" d="M71.8,27l-0.5,0
			c-0.3,0-0.5-0.2-0.6-0.6L68.8,16c-0.1-0.8,0.2-0.6,0.4-0.7l4.7-0.1L71.8,27z"/>
		<path id="path2426_3_" marker-mid="none" marker-end="none" marker-start="none" class="st171" d="M131.3,11.6c0,0,0,0.3,0,0.4
			c-0.1-0.1-1.6,0-2.4,0l-34.7-0.4l-42.8,0.8l-38.4,0.6c-0.1-0.1-0.1-0.2,0-0.3c0,0,22.9-0.3,40.2-0.8c17.3-0.4,40.2-0.8,40.2-0.8
			s0.1,0.4,0.7,0.4c0.6,0,0.8-0.4,0.8-0.4L131.3,11.6z"/>
		<path id="path8022_3_" marker-mid="none" marker-end="none" marker-start="none" class="st215" d="M67.3,14.8c-0.9,0-1,0.6-1.1,1
			l-0.4,2l1.5,8.3c0.1,0.5-0.2,0.5-0.4,0.5c-0.2,0-0.3,0-0.3,0c0,0-0.4-0.9-0.6-1.6c-0.3-0.5-0.8-0.7-1.3-0.8l-0.9,5.2l7.5,0.4
			l0.5-2.8l-0.5,0c-0.3,0-0.5-0.2-0.6-0.6L68.8,16c-0.1-0.8,0.2-0.6,0.4-0.7l4.7-0.1l0,0l0.1-0.6L67.3,14.8z"/>
		<path id="path3229_3_" marker-mid="none" marker-end="none" marker-start="none" class="st214" d="M84.3,30.7l-1.9-16.5l6.3,0
			c1.1,0,1.2,0.9,1.3,1l3.2,13c0.4,1.3-0.1,2.8-1.4,2.8L84.3,30.7z"/>
		<path id="path3233_3_" marker-mid="none" marker-end="none" marker-start="none" class="st225" d="M83,15.2L83,15.2l1.2,10.9
			l0-0.1c0,0,3.8-0.1,4.8-0.2c0,0,0,0,0.1,0c0.6,0,0.9,0.5,1.2,0.9l2-0.1l-2.8-11.2c0-0.1-0.1-0.3-0.1-0.4L83,15.2z M81.3,16.1
			l1.7,8.8l-1.1-9.7l0,0C81.1,15.2,81.2,15.7,81.3,16.1z"/>
		<path id="path3241_3_" marker-mid="none" marker-end="none" marker-start="none" class="st215" d="M89,25.9
			c-1,0.1-4.8,0.2-4.8,0.2l0,0.1l0.5,4.2l7,0.1c1-0.1,1.2-0.9,0.9-2l-0.4-1.8l-2,0.1C90,26.3,89.6,25.9,89,25.9
			C89,25.9,89,25.9,89,25.9z"/>
		<path id="path3245_3_" marker-mid="none" marker-end="none" marker-start="none" class="st215" d="M82.9,14.6l0.1,0.5l0,0l6.2-0.2
			l0,0c-0.1-0.3-0.4-0.4-0.6-0.4C86.7,14.6,84.8,14.6,82.9,14.6z"/>
		<path id="path3249_3_" marker-mid="none" marker-end="none" marker-start="none" class="st225" d="M65.8,17.7l1.5,8.3
			c0.1,0.5-0.2,0.5-0.4,0.5c-0.2,0-0.3,0-0.3,0c0,0-0.4-0.9-0.6-1.6c-0.3-0.8-1.3-0.8-1.3-0.8L65.8,17.7z"/>
		<path id="rect3264_3_" marker-mid="none" marker-end="none" marker-start="none" class="st214" d="M88.9,32.5l0,0.2l-0.2,1.4
			c-0.1,1.2-1.1,2-2.1,1.9L85,35.8c-1-0.1-1.7-1.2-1.6-2.4l0.6-4.6c0.1-1.2,1.1-2,2.1-1.9l1.6,0.2c1,0.1,1.7,1.2,1.6,2.4L88.9,32"/>
		<path id="path3267_3_" marker-mid="none" marker-end="none" marker-start="none" class="st226" d="M88.6,32.5c0-0.1,0-0.1,0-0.2
			 M88.7,31.8c0.1,0,0.1-1.3,0.2-1.9c0.2-0.7,0.1-1.5-0.4-2.1c-0.6-0.6-1.5-0.4-2.2-0.6c-0.6-0.1-1.3,0.3-1.6,0.9
			c-0.4,1.3-0.4,2.7-0.6,4.1c-0.1,0.8-0.3,1.7,0.1,2.4c0.5,0.7,1.4,0.6,2.1,0.7c0.7,0.1,1.6-0.1,1.9-0.9c0.2-0.7,0.3-1.4,0.4-2.1"/>
		<path id="path3427_3_" marker-mid="none" marker-end="none" marker-start="none" class="st219" d="M73.1,60.2
			c-5.3,0.6-8.8,7.5-7.9,15.5c0.9,8,5.9,13.9,11.2,13.3c4.2-0.5,7.4-5.1,7.9-11l0.1-0.3c0,0-0.1,0-0.1,0c-1.2-0.6-1.4-2.3-1.4-2.9
			c0-0.3,0.2-0.9,0.4-1.5l-0.1,0c-0.3-0.2-0.5-1-0.5-1c-0.8-1.8-1.5-4.2-3.9-9.1c-0.5-0.8-0.9-1.4-1.4-2c-1.2-0.7-2.4-1.1-3.7-1.1
			C73.5,60.2,73.3,60.2,73.1,60.2z M85.9,71.6c0,0-0.1,0-0.1,0C85.8,71.6,85.9,71.6,85.9,71.6z M84.6,71.7
			C84.6,71.7,84.7,71.7,84.6,71.7C84.7,71.7,84.6,71.7,84.6,71.7z M84.3,71.9C84.3,71.9,84.3,71.8,84.3,71.9
			C84.3,71.8,84.3,71.9,84.3,71.9z M84.2,71.9c0,0,0.1,0,0.1-0.1C84.2,71.9,84.2,71.9,84.2,71.9z M84,72.1C84,72.1,84,72.1,84,72.1
			C84,72.1,84,72.1,84,72.1z M83.9,72.2C83.9,72.2,83.9,72.1,83.9,72.2C83.9,72.1,83.9,72.2,83.9,72.2z"/>
		<path id="path6895_4_" marker-mid="none" marker-end="none" marker-start="none" class="st227" d="M83.3,76.7
			C83.3,76.7,83.3,76.7,83.3,76.7C83.3,76.7,83.3,76.7,83.3,76.7z"/>
		<path id="path6893_3_" marker-mid="none" marker-end="none" marker-start="none" class="st218" d="M84.3,78.1
			c-0.6,5.9-3.7,10.5-7.9,11c-0.3,0-0.6,0-0.9,0c1.2,0.1,3.5,0.2,5.1,0.1c1.9-0.1,4.3-0.6,6.2-1.9v0c2.3-1.5,4-4.5,4.8-8.1
			c-3.4-0.5-6.2-1-7.1-1.4L84.3,78.1z"/>
		<path id="path3432_4_" marker-mid="none" marker-end="none" marker-start="none" class="st227" d="M74.7,89.1c0,0,0.1,0,0.1,0
			C74.8,89.1,74.8,89.1,74.7,89.1L74.7,89.1z"/>
		<path id="path3436_3_" marker-mid="none" marker-end="none" marker-start="none" class="st171" d="M73.9,64c3,0,5.4,4.6,5.4,10.3
			l0,0c0,5.6-2.5,10.2-5.4,10.1c-3,0-5.4-4.6-5.4-10.3C68.4,68.5,70.9,64,73.9,64z"/>
		<path id="path3446_3_" marker-mid="none" marker-end="none" marker-start="none" class="st220" d="M68.5,74.1
			c0-5.4,2.3-9.8,5.1-9.8c2.8,0,5.1,4.5,5.1,9.9c0,5.4-2.3,9.8-5.1,9.8C70.7,84,68.5,79.5,68.5,74.1L68.5,74.1z"/>
		<path id="path3440_3_" marker-mid="none" marker-end="none" marker-start="none" class="st171" d="M73.9,67.4
			c-0.6,0-1.1,0.2-1.5,0.5c-0.4,0.4-2.2,1.4-2.5,5.7c-0.2,3.3,2.1,5.9,2.8,6.4c0.7,0.5,1,0.7,1.5,0.7c1.9,0,3.3-2.9,3.2-6.6
			c-0.1-3.6-1.6-6.5-3.4-6.7C74.1,67.4,74,67.4,73.9,67.4z"/>

			<linearGradient id="path3719_4_" gradientUnits="userSpaceOnUse" x1="560.6562" y1="389.3094" x2="560.6564" y2="389.2275" gradientTransform="matrix(-37.1414 0 0 -41.9452 20897.5664 16404.4941)">
			<stop  offset="0" style="stop-color:#575858"/>
			<stop  offset="1" style="stop-color:#575858;stop-opacity:0"/>
		</linearGradient>
		<path id="path3719_3_" class="st228" d="M72.4,74.6c0,0.9-0.1,2.4-1.3,2.4c-0.1,0-0.1,0-0.2,0c0.5,1.1,1.2,2.1,2.1,2.9
			c0.7,0.8,2,0.7,2.6-0.2c1.3-1.8,1.7-4.1,1.4-6.3c-0.2,0.4-0.2,0.8-0.3,0.9c-0.4,0.3-0.4,0.2-0.7,0.1c-0.3-0.1-0.3-0.4-0.9-0.1
			s-1,0.9-1.6,0.4c-0.3-0.3-0.7,0.1-0.8-0.1c-0.1-0.1-0.2-0.1-0.5-0.8C72.3,74.2,72.3,74.2,72.4,74.6z"/>
		<path id="path3442_3_" marker-mid="none" marker-end="none" marker-start="none" class="st220" d="M71,72c0.5,0,0.9,1,0.9,2.2
			c0,1.3-0.4,2.3-0.8,2.3c-0.5,0-0.9-1-0.9-2.2C70.1,73.1,70.5,72,71,72z"/>
		<path id="path3444_3_" marker-mid="none" marker-end="none" marker-start="none" class="st224" d="M71.4,68.9c0.4-0.6,0.8-0.8,1-1
			c0.4-0.4,0.9-0.5,1.5-0.5c0.1,0,0.1,0,0.2,0c1.8,0.2,3.3,3.1,3.4,6.7c0.1,3.7-1.4,6.6-3.2,6.6c-0.5,0-0.8-0.2-1.5-0.7
			c-0.3-0.2-0.9-0.8-1.4-1.6c0.7,2.3,1.9,3.8,3.2,3.8c2.1,0,3.7-3.6,3.6-8C78,69.7,76.3,66,74.2,66C73.1,66,72.1,67.1,71.4,68.9z
			 M71.4,68.9C71.4,68.9,71.4,68.9,71.4,68.9L71.4,68.9L71.4,68.9z"/>
		<path id="path3462_3_" marker-mid="none" marker-end="none" marker-start="none" class="st217" d="M83.9,72.2
			c-0.3,0.3-1,2.1-1,2.7c0,0.6,0.2,2.3,1.4,2.9c1.2,0.6,8.4,1.7,14,2.1c5.6,0.4,16.7,0.1,16.7,0.1l0.1-0.1c0,0,0.6-1,0.7-2.2
			c0.1-1.2,0-3.3-0.4-3.6c-0.4-0.4-1.1-1-1.1-1s-8,0.5-14.4,0.1L98.1,73c0,0-7.1-0.6-9.4-0.9c-1.5-0.2-2.6-0.5-3.4-0.5
			C84.8,71.6,84.3,71.8,83.9,72.2z"/>
		<path id="path8082_3_" marker-mid="none" marker-end="none" marker-start="none" class="st218" d="M124.9,71c0,0-0.1,0-0.1,0
			C124.8,71,124.8,71,124.9,71z"/>
		<path id="path8080_3_" marker-mid="none" marker-end="none" marker-start="none" class="st218" d="M123.6,71.1
			C123.6,71.1,123.6,71.1,123.6,71.1C123.6,71.1,123.6,71.1,123.6,71.1z"/>
		<path id="path3468_3_" marker-mid="none" marker-end="none" marker-start="none" class="st229" d="M117.6,65.8
			c-0.2,0.1-1.1,0.7-1.2,0.9c-0.1,0.1-0.2,0.4-0.2,0.4s0.3,0.7,0.1,1.3c-0.2,0.6-0.6,0.6-0.6,0.6s-0.3,1.1-0.6,2.1
			c-0.3,1-0.7,1.9-0.7,1.9l0,0c0,0,0.7,0.7,1.1,1c0.4,0.4,0.5,2.4,0.4,3.6c-0.1,1.2-0.7,2.2-0.7,2.2L115,80c0.3,0.2,1.5,0.9,2,1.1
			c0.7,0.3,1.5,0,2.1-0.6c0.6-0.6,1.1-12.1,1.1-12.7c0-0.6-0.2-1-0.6-1.3c-0.4-0.3-1.2-0.8-1.4-0.9c-0.1,0-0.1,0-0.2,0
			C117.9,65.6,117.7,65.7,117.6,65.8z"/>
		<path id="path8062_3_" marker-mid="none" marker-end="none" marker-start="none" class="st218" d="M119.4,79.6
			c-0.1,0.5-0.2,0.9-0.3,1c-0.6,0.6-1.5,0.8-2.1,0.6c-0.6-0.2-1.8-1-2-1.1l0,0c0,0-1.2,0-3,0.1c2,3.7,4.9,6,8.1,6.1
			c1.2,0.1,3.5,0.2,5.1,0.1c1.9-0.1,4.3-0.6,6.2-1.9v0c2.1-1.4,3.7-4,4.5-7.1C131,78.3,124.4,79.4,119.4,79.6z"/>
		<path id="path3474_3_" marker-mid="none" marker-end="none" marker-start="none" class="st230" d="M100.8,67.2
			c-0.9,0.5-1.8,1.4-2.2,2.7c-0.4,1.4-0.6,2.7-0.7,4.3c-0.3,2,1.6,0.7,1.8,0.1c0.1-1.5,0.3-2.8,0.6-3.9c0.3-0.9,0.7-1.3,1.3-1.6
			c0.6-0.3,1.3-0.4,1.9-0.3c1.4,0.1,12.2,0.5,12.2,0.5c0,0,0,0,0,0s0.4,0,0.6-0.6c0.2-0.6-0.1-1.3-0.1-1.3s0,0,0,0
			c-1.5,0-11.3-0.3-12.6-0.4c-0.1,0-0.1,0-0.2,0c0,0-0.1,0-0.1,0C102.5,66.7,101.7,66.8,100.8,67.2z"/>
		<path id="path3505_3_" marker-mid="none" marker-end="none" marker-start="none" class="st220" d="M98.5,46.6
			c0-1.8,1.6-3.3,3.6-3.4s3.7,1.4,3.8,3.2s-1.6,3.3-3.6,3.4C100.2,49.9,98.6,48.5,98.5,46.6L98.5,46.6z"/>
		<path id="path3499_3_" marker-mid="none" marker-end="none" marker-start="none" class="st231" d="M102.2,43.5
			c1.8,0,3.4,1.3,3.4,3c0,1.7-1.4,3.1-3.3,3.2s-3.4-1.3-3.4-3C98.9,44.9,100.4,43.5,102.2,43.5z"/>

			<radialGradient id="path3501_4_" cx="329.7297" cy="220.2405" r="2.9092" gradientTransform="matrix(-1.2567 -0.5304 0.5815 -1.3778 388.8573 524.9243)" gradientUnits="userSpaceOnUse">
			<stop  offset="0" style="stop-color:#E7B721"/>
			<stop  offset="0.4567" style="stop-color:#E1B524"/>
			<stop  offset="1" style="stop-color:#FFE400"/>
		</radialGradient>
		<path id="path3501_3_" marker-mid="none" marker-end="none" marker-start="none" class="st232" d="M99.7,46.3
			c0.2-1.4,1.4-2.6,2.8-2.6c1.6,0,2.8,1.2,2.8,2.8c0,1.6-1.3,2.9-2.8,3c-1.5,0-2.7-1.1-2.8-2.6"/>
		<path id="path3512_3_" marker-mid="none" marker-end="none" marker-start="none" class="st214" d="M122.3,30.8L99,31.3
			c-1.1,0-2.1-0.5-2.6-2.1l-4.1-15c-0.3-1.2-0.1-2.2,1.5-2.2l20,0c1.5,0.1,2.6,0.7,3.2,1.9l6.4,14.5
			C123.8,29.7,123.2,30.8,122.3,30.8z"/>
		<path id="path3235_3_" marker-mid="none" marker-end="none" marker-start="none" class="st171" d="M86.4,31.2
			c-0.1,0-0.3,0.1-0.3,0.2c0,0.1,0,0.2,0.1,0.3l6.1,1.7c0,0,0,0,0,0c0.4,0.1,0.6,0.2,0.7,0.4c0.1,0.1,0.2,0.3,0.2,0.5c0,0,0,0,0,0
			l0.5,4.7c0,0.1,0.1,0.2,0.1,0.2c0.1,0,0.2,0,0.3,0c0.1-0.1,0.1-0.2,0.1-0.2l-0.5-4.7c0-0.3-0.1-0.6-0.3-0.8
			c-0.2-0.2-0.5-0.4-0.9-0.5C92.5,33,87,31.4,86.4,31.2C86.4,31.2,86.7,31.3,86.4,31.2L86.4,31.2z"/>
		<path id="path3514_3_" marker-mid="none" marker-end="none" marker-start="none" class="st215" d="M121.4,30.4l-22,0.5
			c-1,0-1.9-0.5-2.5-2L93,14.8c-0.2-1.2-0.1-2.1,1.5-2.1l19,0c1.4,0.1,2.5,0.7,3,1.8l6.1,13.8C122.8,29.4,122.3,30.4,121.4,30.4z"/>
		<path id="path3518_3_" marker-mid="none" marker-end="none" marker-start="none" class="st225" d="M107,25.5l-2.2-9.2
			c-0.1-0.8-0.3-1.3-1.1-1.4l-6.8,0.4L98.4,26L107,25.5z"/>
		<path id="path3524_3_" marker-mid="none" marker-end="none" marker-start="none" class="st214" d="M128.9,12.5
			c0.8,0.2,1.6,0.6,2.3,1.8l7.4,13.7c0.6,1.2,0.7,2.1-0.6,2l-11.1,0.6c-0.9,0-1.8-0.2-2.8-2.2l-2.4-5.5l-3.8-8.8
			c-0.1-0.8-1-1.9,1.6-1.8L128.9,12.5z"/>
		<path id="path7919_3_" marker-mid="none" marker-end="none" marker-start="none" class="st215" d="M117.6,13.2L117.6,13.2
			c0,0.3,0.2,0.6,0.2,0.9l3.8,8.8l2.4,5.5c0.4,0.7,0.7,1.2,1,1.5c0.5,0.3,0.9,0.4,1.4,0.3l10.6-0.6c1.2,0.1,1.1-0.8,0.5-2l-7-13.3
			c-0.7-1.2-1.4-1.6-2.2-1.7l-9-0.2c-0.1,0-0.2,0-0.2,0C118,12.6,117.7,12.8,117.6,13.2z"/>
		<path id="path3534_3_" class="st225" d="M128.3,14.6l7.1,15.2l0,0l1.8-0.1c1.2,0.1,1.1-0.8,0.5-2l-6.8-12.8
			c-0.4-0.3-0.9-0.4-1.5-0.4C129,14.5,128.7,14.5,128.3,14.6z M127.6,14.6l-9.2,0.3l3.4,7.9l1,2.3l0,0c0.6-0.2,1.2-0.3,1.8-0.3
			c2.7,0,5.1,2.2,5.8,5.2l4.2-0.2L127.6,14.6L127.6,14.6z M124.5,25.7c-0.3,0-0.9,0.1-1.4,0.3l1.3,3l0.9,0.1l0.7-3.2
			c-0.1,0-0.3-0.1-0.4-0.1c-0.2,0-0.3-0.1-0.5-0.1c0,0-0.1,0-0.1,0C124.8,25.7,124.7,25.7,124.5,25.7L124.5,25.7z M125.8,29.2
			l3.3,0.5c-0.3-1-0.8-2-1.4-2.7c-0.4-0.4-0.8-0.7-1.2-0.9L125.8,29.2z"/>
		<path id="path3575_3_" marker-mid="none" marker-end="none" marker-start="none" class="st230" d="M142.7,63.8
			c0,0-1.7,0.5-3.7,0.8c0,0-8.2,1.3-8.4,1.2c0,0-7,0.9-10.6,1.1c0.2,0.3,0.3,0.6,0.2,0.9c0,0.1,0,0.4,0,0.8l0,0
			c4.7-0.3,8.4-0.8,13.4-1.4c2.6-0.3,4.9-0.7,6.7-1.1c1.9-0.4,2.4-0.7,2.4-0.7c0.2,0,0.7-0.3,0.6-0.9c0-0.5-0.3-0.7-0.5-0.8
			C142.8,63.8,142.8,63.8,142.7,63.8z"/>
		<path id="path3581_3_" marker-mid="none" marker-end="none" marker-start="none" class="st229" d="M144,62.1
			c-0.2,0-0.5,0.5-0.8,0.9l-0.4,0.7c0.2,0,0.5,0.2,0.5,0.8c0,0.6-0.4,0.9-0.6,0.9c0,0-0.1,0.1-0.4,0.1l0,0l-1.9,3.8
			c0,0,1.1,0,1.6,0.6c0.5,0.6,1.3,2.6,1.3,3.3c0,0.6-1.1,2-1.1,2.3c0,0-0.1,0.1-0.2,0.1c0,0.1,0.1,0.4,0.5,0.5
			c0.4,0.1,1.4,0.2,2.1,0.3c0.6,0.1,1.1-0.5,1.1-1c0-0.5,0.4-11.1,0.5-11.6c0-0.5-0.2-1.3-0.9-1.5v0C145.2,62.4,144.3,62.2,144,62.1
			C144,62.1,144,62.1,144,62.1C144,62.1,144,62.1,144,62.1z"/>
		<path id="path3587_3_" marker-mid="none" marker-end="none" marker-start="none" class="st216" d="M146,63.7c0.9-0.5,1-1.7,1-1.7"
			/>
		<path id="path3591_3_" marker-mid="none" marker-end="none" marker-start="none" class="st217" d="M145.9,66.9
			c-0.1,2.2-0.2,5-0.3,6.9l0,0c0,0,0.5-0.5,0.8-0.8c0.3-0.3,1-2.1,1-2.5s-0.4-1.6-0.8-2.6C146.2,66.9,145.9,66.9,145.9,66.9
			L145.9,66.9z M145.6,73.8L145.6,73.8L145.6,73.8C145.6,73.8,145.6,73.8,145.6,73.8z"/>
		<path id="path3621_3_" marker-mid="none" marker-end="none" marker-start="none" class="st171" d="M61.3,40.7
			c-0.2,0-0.4,0.2-0.4,0.5c0,0.1,0,0.2,0,0.2c0,0.5,1.3,0.9,1.7,0.9c0.1,0,0.3-0.1,0.4-0.2c0.1,0,0.1,0,0.2,0c0.9,0.1,1.8,0,2.7,0
			c0.3,0,0.4-0.2,0.4-0.4c0-0.3-0.3-0.3-0.5-0.3c-0.8,0-1.3-0.1-2.1-0.2c-0.1,0-0.3-0.1-0.5-0.1l0.1,0c-0.1-0.3-0.3-0.5-0.6-0.5
			C62.4,40.5,61.6,40.5,61.3,40.7z"/>
		<path id="path4289_3_" class="st218" d="M13.2,61c-0.9,0.4-1.9,0.8-2.5,1l0,0c-0.1,0.1-0.2,0.2-0.5,0.2c-0.7,0.2-2,0.6-4,0.7
			c-0.4,0.1-0.4,0.7,0.1,1.1c2.1-0.1,3.4-0.4,4.1-0.7c0.3-0.1,1.8-0.7,3.1-1.2c1.9-0.8,2.1-0.9,2.3-0.9c0-0.4,0-0.8,0-1.2
			C15.7,60,14.5,60.5,13.2,61z"/>
		<path id="path4324_3_" marker-mid="none" marker-end="none" marker-start="none" class="st233" d="M8.4,56.8
			c-0.1,0-0.5,0.2-0.1,0.3c0.2,0.1,0.5,0.1,0.9,0.2c0-0.2-0.1-0.4-0.1-0.7C8.9,56.7,8.5,56.8,8.4,56.8z"/>
		<path id="path6924_3_" marker-mid="none" marker-end="none" marker-start="none" class="st222" d="M63.7,72.1
			c0-0.1,0.5-1.4,0.5-1.5l-0.4-0.3c-0.3,0.2-0.7-0.6-0.3,0.1C63.5,70.5,63.6,71.9,63.7,72.1z"/>
		<path id="path3878_3_" marker-mid="none" marker-end="none" marker-start="none" class="st220" d="M18.6,63.4
			c0-0.9,0.2-1.6,0.6-1.7c0.3,0,0.6,0.7,0.6,1.6c0,0.9-0.2,1.6-0.6,1.7C18.9,65,18.6,64.3,18.6,63.4L18.6,63.4z"/>
		<path id="path7092_3_" marker-mid="none" marker-end="none" marker-start="none" class="st220" d="M145.6,61.7
			c-0.2,0.6-0.5,0.7-0.5,0.7v0c0,0,0.1,0,0.1,0v0c0.2,0.1,0.3,0.1,0.4,0.3c0.4-0.3,0.4-0.8,0.5-1c0-0.3,0.2-0.6,0.4-0.7
			C145.9,61,145.8,61.2,145.6,61.7z"/>
		<path id="path7121_3_" marker-mid="none" marker-end="none" marker-start="none" class="st234" d="M145.7,72c0,0.6,0,1.3-0.1,1.7
			l0,0c0,0,0.5-0.5,0.8-0.8c0.3-0.3,0.7-1.4,0.9-2.1C147,71.2,146.4,71.6,145.7,72z M145.6,73.8L145.6,73.8L145.6,73.8
			C145.6,73.8,145.6,73.8,145.6,73.8z M119.7,77.3c-0.1,0.9-0.2,1.7-0.3,2.3c8.7-0.4,22.6-3.6,22.7-4c0.1-0.3,1.1-1.7,1.1-2.3
			c0-0.1,0-0.2,0-0.3C137.5,74.8,124.9,76.8,119.7,77.3z M84.3,77.8c1.2,0.6,8.4,1.7,14,2.1c5.6,0.4,16.7,0.1,16.7,0.1l0.1-0.1
			c0,0,0.6-1,0.7-2.2c0-0.1,0-0.2,0-0.3c-6.1,0.2-20.7,0.5-33-2.3C82.9,75.9,83.3,77.3,84.3,77.8z"/>
		<path id="rect3641_3_" marker-mid="none" marker-end="none" marker-start="none" class="st216" d="M142.5,29.6l-0.6-0.1
			c-0.1,0-0.2-0.3-0.2-0.6c0,0,0.4-4.2,0.5-4.6c0.1-0.3,0.2-0.6,0.3-0.6l0.8,0.1c0.1,0,0.3,0.5,0.2,0.8"/>
		<path id="path4239_3_" marker-mid="none" marker-end="none" marker-start="none" class="st235" d="M12,53.4
			c-0.1,0.6,0.1,3.2,0,4.2c0,0,0,0.1,0,0.1c0.1-1.1,0.2-3.5,0.3-4c0.1-0.6,0.1-0.7,1.1-0.6c1,0.1,8.6,1.6,9.7,1.7
			c1.1,0.1,1.8,0.7,1.9,1.2c0.4,1.2,0.5,1.4,0.8,2.4c-0.2-1.1-0.1-1.6-0.5-2.8c-0.1-0.5-0.9-1.5-2-1.7c-1.1-0.1-9-1.7-9.9-1.8
			c-0.1,0-0.1,0-0.2,0C12.4,52.2,12.1,52.8,12,53.4z"/>
		<path id="path6915_3_" marker-mid="none" marker-end="none" marker-start="none" class="st216" d="M97.3,72.3c-4,0-9.9-0.8-11.1-1
			c-3-0.5-2.7,0.1-4.5-3.6l-2.5-7c-0.5-1.5-0.9-2.9-2.9-3L60.8,55c-0.1,0-0.1,0.1-0.1,0.1"/>
		<path id="path7900_3_" marker-mid="none" marker-end="none" marker-start="none" class="st215" d="M52.3,14.1
			c-1.3,0-1.3,0.8-1.5,1.5c-0.5,2-0.9,4-1.3,6h0l0.2,2.8c0,0.2,0,0.4-0.3,0.4l-0.5,0c-0.2,1-0.4,2-0.6,3c-0.1,0.9-0.2,1.5,1.2,1.6
			l9.2,0.5c0.4,0,0.7,0,0.8,0c0.2-0.3,0.3-0.7,0.3-1c0,0,0.4-2.4,0.7-4.6l-2.8-8.4c-0.1-0.4,0-0.6,0.4-0.6l4.1-0.1l0,0
			c0.1-0.5,0.1-0.8,0.1-1L52.3,14.1L52.3,14.1z M60.9,22.3c0-0.1,0-0.3,0.1-0.4C60.9,22,60.9,22.1,60.9,22.3z M39.5,24.8
			c-1.2,0-2.4,0-3.7,0c-0.2,0.9-0.3,1.6-0.3,1.8c-0.1,0.9-0.3,2,0.6,2.1c0.8,0.1,7,0.4,7.5,0.4c0.6,0,1.2,0,1.6-0.3l0.2-0.7
			c0.1-0.7,0.3-2,0.5-3.3c0,0-2.2,0-5.1,0C40.4,24.8,40,24.8,39.5,24.8z M33,24.9c-2.2,0-4.2,0.1-5.5,0.2c-1.9,0.1-3,0.8-3.7,1.6
			l0,0c-0.1,0.7-0.1,1.2,0.9,1.2c0.7,0,6.7,0.3,7.6,0.4c0.1-0.2,0.2-0.4,0.2-0.7C32.6,26.9,32.8,25.9,33,24.9L33,24.9L33,24.9z"/>
		<path id="path3201_3_" marker-mid="none" marker-end="none" marker-start="none" class="st225" d="M47.2,14.3
			c-1.4,0.1-7.4,0.1-7.6,0.1c-0.3,0-1.7-0.2-2,1.4c-0.2,1.2-1.2,6.2-1.7,9c1.3,0,2.5,0,3.7,0c3.5,0,6.3,0,6.4,0
			c0.3-1.9,0.6-3.9,0.7-4.4c0.1-0.7,1.1-4.9,1.1-4.9c0,0,0.2-0.7,0.1-1.2h0C47.6,14.3,47.4,14.3,47.2,14.3
			C47.2,14.3,47.2,14.3,47.2,14.3z M27.3,14.8c-0.2,0-1.1-0.2-1.4,1.2c-0.3,1.5-1.8,9.3-2,10.1c0,0.2-0.1,0.4-0.1,0.5l0,0
			c0.7-0.8,1.8-1.5,3.7-1.6c1.3-0.1,3.3-0.2,5.5-0.2l0,0c0.3-1.9,0.8-4.1,0.8-4.6c0.1-0.7,0.8-4.4,0.8-4.4c0,0,0.2-0.7,0-1.2
			C32.3,14.7,27.5,14.8,27.3,14.8z M56.2,15.3c-0.4,0-0.8,0.1-0.8,0.5c0,0,1.3,8.6,1.3,8.6l3.8-0.1c0.2-1.1,0.3-2.2,0.5-2.8
			c0.3-1.9,1.3-6.2,1.3-6.2c0,0,0-0.1,0-0.1l0,0L56.2,15.3z M49.5,21.6c-0.2,1.1-0.4,2.1-0.6,3.2l1.3,0c0.3,0,0.4-0.2,0.3-0.4
			l-0.5-5.5L49.5,21.6z M23.8,27.5C23.8,27.5,23.8,27.5,23.8,27.5C23.8,27.5,23.8,27.5,23.8,27.5z M24.2,27.8
			C24.2,27.8,24.2,27.8,24.2,27.8C24.2,27.8,24.2,27.8,24.2,27.8z"/>
		<path id="path7959_3_" marker-mid="none" marker-end="none" marker-start="none" class="st225" d="M111.6,15.3
			c-0.9,0-1.1,0.4-0.9,1l2.8,11.2l9,1.2c0-0.2,0-0.4-0.1-0.5l-5.8-13.1L111.6,15.3z"/>
		<path id="path7946_3_" marker-mid="none" marker-end="none" marker-start="none" class="st215" d="M118.8,29.5c0,0,0,0.5-0.1,0.9
			l1.2,0c0.1-0.5,0.1-0.8,0.1-0.8c0.3-1.2,0.9-2.2,1.8-2.9h0l-0.4-0.9C120.3,26.7,119.3,28,118.8,29.5z"/>
		<path id="path3209_3_" marker-mid="none" marker-end="none" marker-start="none" class="st225" d="M74.8,15.2l-2.1,11.5
			c0.1-0.3,0.7-0.6,1.3-0.6c0.6,0,4.4-0.1,4.4-0.1L76,15.2L74.8,15.2z"/>
		<path id="path8094_3_" marker-mid="none" marker-end="none" marker-start="none" class="st236" d="M143.3,64.6
			c0,0-0.5,0.2-2.4,0.7c-1.8,0.4-4.1,0.8-6.7,1.1c-5,0.6-8.7,1.1-13.4,1.4l0,0c-0.2,0-0.4,0-0.6,0.1c0,0.1,0,0.4,0,0.8l0,0
			c4.7-0.3,8.4-0.8,13.4-1.4c2.6-0.3,4.9-0.7,6.7-1.1c1.9-0.4,2.4-0.7,2.4-0.7C142.9,65.4,143.3,65.2,143.3,64.6
			C143.3,64.6,143.3,64.6,143.3,64.6z"/>
		<path id="path2484_3_" marker-mid="none" marker-end="none" marker-start="none" class="st214" d="M86.1,31.5c0,0.1,0,0.2,0.1,0.3
			l6.1,1.7c0,0,0,0,0,0c0.4,0.1,0.6,0.2,0.7,0.4c0.1,0.1,0.2,0.3,0.2,0.5c0,0,0,0,0,0l0.5,4.7c0,0.1,0.1,0.2,0.2,0.2
			c0.1,0,0.2,0,0.3,0c0,0,0.1-0.1,0.1-0.1c0,0-0.1,0-0.1,0c-0.1,0-0.1-0.1-0.2-0.2l-0.5-4.7c0,0,0,0,0,0c0-0.3-0.1-0.4-0.2-0.5
			c-0.1-0.1-0.3-0.3-0.7-0.4c0,0,0,0,0,0l-6.1-1.7c-0.1,0-0.2-0.1-0.1-0.3c0,0,0,0,0,0c0,0,0,0,0,0C86.3,31.2,86.1,31.3,86.1,31.5z"
			/>
		<path id="path3605_3_" marker-mid="none" marker-end="none" marker-start="none" class="st213" d="M142.9,33.5c0-0.9,0-2.2,0-2.9
			c0-0.4,0-0.7,0.1-0.9c0-0.1,0-0.2,0-0.3s0-0.1,0-0.1c0.2-0.5,1.2-2.2,1.2-2.2c0-0.1,0-0.2,0-0.3c0-0.1-0.1-0.1-0.2-0.1
			c-0.1,0-0.2,0.1-0.2,0.1c0,0-0.9,1.7-1.2,2.2c0,0.1-0.1,0.2-0.1,0.2c0,0.1,0,0.2,0,0.3c0,0.2,0,0.6-0.1,0.9c0,0.7,0,1.6,0,2.5
			c0,0.1,0,0.2,0,0.4 M142.4,35.7c0,0.6,0,0.3,0,0.3c0,0.1,0.1,0.2,0.1,0.2c0.1,0,0.2,0,0.3,0c0.1,0,0.1-0.1,0.1-0.2
			c0,0,0,0.3,0-0.3"/>
		<path id="path3259_3_" marker-mid="none" marker-end="none" marker-start="none" class="st234" d="M5.9,59.5
			c0,0.5,0.4,1.2,0.6,1.6c0.2,0.4,0.3,0.5,0.5,0.5c0.2,0.1,2.3,0.5,2.9,0.6c0.6,0.1,0.7-0.1,0.7-0.2c0.1-0.1,0.5-1.1,0.5-1.5
			c0,0,0-0.1,0-0.1c-0.2,0-0.3,0-0.6,0c-0.4,0-4.2-0.8-4.2-0.8S6,59.5,6,59.3C5.9,59.4,5.9,59.4,5.9,59.5z"/>

			<linearGradient id="path3753_4_" gradientUnits="userSpaceOnUse" x1="531.1218" y1="388.7817" x2="531.1281" y2="388.715" gradientTransform="matrix(-24.6401 0 0 -26.3627 13108.1221 10313.4814)">
			<stop  offset="0" style="stop-color:#575858"/>
			<stop  offset="1" style="stop-color:#575858;stop-opacity:0"/>
		</linearGradient>
		<path id="path3753_3_" class="st237" d="M20,63.7c0,0.5-0.1,1.5-0.8,1.5c0,0-0.1,0-0.1,0c0.3,0.7,0.8,1.3,1.4,1.8
			c0.4,0.5,1.5,0.6,1.9,0.1c0.9-1.1,1-2.7,0.8-4.1c-0.1,0.3-0.3,0.4-0.4,0.5c-0.2,0.2-0.2,0.1-0.5,0.1c-0.2-0.1-0.2-0.2-0.5-0.1
			c-0.3,0.1-0.6,0.6-1,0.3c-0.2-0.2-0.4,0-0.5,0c-0.1-0.1-0.1-0.1-0.3-0.5C20,63.4,20,63.4,20,63.7z"/>

			<radialGradient id="path3841_4_" cx="-45.2029" cy="355.9099" r="2.9092" gradientTransform="matrix(-0.8721 -0.3612 0.4035 -0.9384 -80.7127 364.5585)" gradientUnits="userSpaceOnUse">
			<stop  offset="0" style="stop-color:#E7B721"/>
			<stop  offset="0.4567" style="stop-color:#E1B524"/>
			<stop  offset="1" style="stop-color:#AD9D33"/>
		</radialGradient>
		<path id="path3841_3_" class="st238" d="M100.4,46.7c0.1-1,0.9-1.7,1.9-1.8c1.1,0,2,0.8,2,1.9c0,1.1-0.9,2-2,2c-1,0-1.9-0.8-2-1.8
			"/>
		<g id="path3853_3_" class="st239">
			<path class="st240" d="M101.6,44.4c1-0.6,2.4-0.6,3.3,0.2c0.8,0.7,0.7,1.8-0.2,2.5l0,0c-1,0.6-2.4,0.6-3.3-0.2
				C100.5,46.2,100.6,45.1,101.6,44.4L101.6,44.4z"/>
		</g>
		<path id="path3893_3_" class="st221" d="M11.6,32.9L11.6,32.9c0,0.5,0.1,0.6,0.4,0.7c0.3,0,3.6,0.3,4.1,0.3c0.3,0,0.6,0.1,0.8,0
			c0.1-0.1,0.1-0.5,0.1-0.5L11.6,32.9z"/>
		<path id="path3895_3_" class="st221" d="M11.6,34.5L11.6,34.5c0,0.5,0.1,0.6,0.4,0.7c0.3,0,3.6,0.3,4.1,0.3c0.3,0,0.6,0.1,0.8,0
			c0.1-0.1,0.1-0.5,0.1-0.5L11.6,34.5z"/>
		<path id="path3897_3_" class="st221" d="M10.9,37.4L10.9,37.4c0,0.5,0.1,0.6,0.4,0.7c0.3,0,3.6,0.3,4.1,0.3c0.3,0,0.6,0.1,0.8,0
			c0.1-0.1,0.1-0.5,0.1-0.5L10.9,37.4z"/>
		<path id="path3899_3_" class="st221" d="M10.9,38.9L10.9,38.9c0,0.5,0.1,0.6,0.4,0.7c0.3,0,3.6,0.3,4.1,0.3c0.3,0,0.6,0.1,0.8,0
			c0.1-0.1,0.1-0.5,0.1-0.5L10.9,38.9z"/>
		<g id="path3917_3_" class="st241">
			<path class="st240" d="M101.6,47.7c0.2,0.2,0.2,0.5-0.1,0.7l0,0c-0.3,0.2-0.7,0.2-1-0.1c-0.2-0.2-0.2-0.5,0.1-0.7
				C100.9,47.5,101.3,47.5,101.6,47.7z"/>
		</g>
	</g>
	<path class="st230" d="M93.5,11.2l37,0.4l-0.1,0c-1.8-2.4-4-3.5-4.6-3.8c-0.6-0.3-4.1-2.2-21.2-3.7c-3.8-0.3-8.3-0.5-13.2-0.5
		c-23.6,0-56.4,3-59,3.3c-3.1,0.4-10.4,1.5-13.8,2.9c-2.6,1.1-4.4,2-5.1,2.8c0,0-0.1,0.1-0.1,0.1l-0.1,0.1L93.5,11.2z"/>
	<g>
		<path class="st243" d="M133.4,48.2c0,1.8-1.2,3.2-2.6,3.2c-0.5,0-1.1,0-1.5-0.3c-0.3-0.2-1.1-0.9-1.1-2.9c0.1-1.9,1.5-3.2,2.6-3.2
			C132.2,44.9,133.4,46.4,133.4,48.2z"/>

			<ellipse transform="matrix(0.1561 -0.9877 0.9877 0.1561 62.8394 169.9038)" class="st244" cx="130.9" cy="48.2" rx="2.7" ry="2.2"/>
		<polygon class="st243" points="130.6,49 131.2,50.8 131.6,50.6 130.9,48.6 		"/>
		<polygon class="st243" points="132.5,46.1 131.4,49.2 131.6,49.8 132.8,46.5 		"/>
		<polygon class="st243" points="131.4,45.4 130.6,47.4 131,47.8 131.8,45.5 		"/>
		<polygon class="st243" points="130.6,47.6 129.8,49.4 130.2,49.9 130.9,48.2 		"/>
		<polygon class="st243" points="129.4,46.1 130.6,48.9 130.8,48.4 129.7,46 		"/>
		<polygon class="st243" points="128.8,47.3 128.6,47.7 129.7,50.7 130.2,50.9 128.8,47.3 		"/>
		<path class="st171" d="M130.1,49.4l0.5-1.2c0,0,0,0,0-0.1l-0.9-2.1c0,0-0.1-0.2-0.1-0.2l0.5-0.1l0.6,1.5c0,0.1,0.1,0.1,0.1,0
			l0.6-1.5c0,0,0.1-0.4,0.1-0.4l0.5,0.3c0,0-0.1,0.3-0.1,0.3l-0.9,2.2c0,0,0,0,0,0l0.5,1.3c0,0.1,0.1,0.1,0.1,0l1.1-3.1l0.1,0.9
			c0,0,0,0,0,0l-0.9,3c0,0,0,0,0,0l-0.4,0.4c0,0-0.1-0.1-0.1-0.2l-0.5-1.6c0-0.1-0.1-0.1-0.1,0l-0.6,1.8l-0.2-0.1l-1.1-3.3
			c0,0-0.2-0.2-0.2-0.2l0.5-0.6l0.8,2.8C130,49.4,130.1,49.4,130.1,49.4z"/>
		<linearGradient id="SVGID_1_" gradientUnits="userSpaceOnUse" x1="128.2408" y1="48.1128" x2="133.3996" y2="48.1128">
			<stop  offset="0" style="stop-color:#FFFFFF"/>
			<stop  offset="1" style="stop-color:#E5E4DC"/>
		</linearGradient>
		<path class="st36" d="M131.3,45c-1.4-0.2-2.8,1-3,2.7c-0.3,1.7,0.6,3.3,2,3.5c1.4,0.2,2.8-1,3-2.7C133.6,46.8,132.7,45.3,131.3,45
			z M133,48.5c-0.2,1.5-1.4,2.5-2.6,2.3c-1.2-0.2-2-1.5-1.7-3c0.2-1.5,1.4-2.5,2.6-2.3S133.2,47.1,133,48.5z"/>
	</g>
	<g>
		<path id="path12345_1_" class="st171" d="M118.1,54.4c3.2-0.4,19.7-2.3,24-3.1c0.4-0.1,0.7,0.2,0.7,0.6c0.1,1.8,0.1,5.9,0,5.8
			c0,0.3-20.5,2.9-24.6,3.5c-0.4,0-0.7-0.2-0.7-0.6c0-1.4,0.1-4.4,0.1-5.6C117.6,54.7,117.8,54.4,118.1,54.4z"/>
		<path class="st246" d="M118.5,54.8c3-0.3,19.1-2.2,23.2-3c0.4-0.1,0.7,0.2,0.7,0.6c0,1.6,0.1,3.4,0.1,4.4c0,0.3-0.2,0.5-0.5,0.6
			c-3.5,0.8-19.8,3-23.4,3.4c-0.3,0-0.7-0.2-0.7-0.6c-0.1-1.2-0.1-3.7,0-4.9C118,55,118.2,54.8,118.5,54.8z"/>
		<path class="st171" d="M118.7,55c3-0.3,18.7-2.1,22.8-2.9c0.4-0.1,0.7,0.2,0.7,0.6c0,1.5,0.1,3.1,0.1,3.9c0,0.3-0.2,0.5-0.5,0.6
			c-3.3,0.8-19.4,2.9-22.9,3.4c-0.4,0-0.7-0.2-0.7-0.6c0-1.1,0-3.3,0-4.3C118.2,55.3,118.4,55,118.7,55z"/>
		<path class="st246" d="M118.7,59l0.5,0l0.2,0.1l0.8,0l0-0.5c0-0.1-0.1-0.2-0.1-0.3l-1.4-0.8c-0.1-0.1-0.1-0.1-0.1-0.3l0-1
			c0-0.1,0-0.2,0.1-0.2l0.3-0.4c0-0.1,0.1-0.1,0.2-0.1l1.3-0.1l0.4,0.3l0,0.6l-0.7,0.1l-0.1-0.3l-0.8,0.1l0,0.5
			c0,0.1,0.1,0.2,0.1,0.3l1.3,0.8c0.1,0.1,0.1,0.1,0.1,0.3l0,0.9c0,0.1,0,0.1-0.1,0.2l-0.3,0.4c-0.1,0.1-0.1,0.1-0.2,0.1l-1.4,0.1
			l-0.3-0.4l0-0.5L118.7,59z"/>
		<path class="st246" d="M121.2,55.3l0.7,0l0.1,3.3l0.1,0.2l0.7,0l0.2-0.2l-0.1-3.3l0.7,0l0.1,3.2c0,0.1,0,0.1-0.1,0.2l-0.5,0.6
			c-0.1,0.1-0.1,0.1-0.2,0.1l-0.9,0c-0.1,0-0.2,0-0.2-0.1l-0.3-0.4c0-0.1-0.1-0.1-0.1-0.2L121.2,55.3z"/>
		<path class="st246" d="M125.9,54.9l-1.5,0.1c-0.2,0-0.3,0.1-0.3,0.3l-0.1,3.8l0.6,0l0-1.4c0-0.2,0.1-0.3,0.3-0.3l1-0.1l0.3-0.4
			l0-1.6L125.9,54.9z M125.8,56.4l-0.3,0.2l-0.7,0l0-0.7c0-0.2,0.1-0.3,0.3-0.3l0.7-0.1L125.8,56.4z"/>
		<path class="st246" d="M126.8,55l0,3.5c0,0.2,0.2,0.3,0.3,0.3l1.8-0.2l0-0.8l-1.1,0.1c-0.2,0-0.3-0.1-0.3-0.3l0-0.3
			c0-0.2,0.1-0.3,0.3-0.3l0.8-0.1l-0.1-0.7l-0.7,0c-0.2,0-0.3-0.1-0.3-0.3l0-0.4c0-0.2,0.1-0.3,0.3-0.3l1.2,0l0-0.8l-1.8,0.2
			C126.9,54.7,126.8,54.8,126.8,55z"/>
		<path class="st246" d="M131.6,54.6l-0.5-0.4l-1.4,0.1c-0.2,0-0.3,0.1-0.3,0.3l0,3.8l0.7,0l0-1.7l0.2,0l0.7,1.6l0.6-0.1l-0.6-1.7
			l0.6-0.3L131.6,54.6z M130.9,55.6c0,0.1-0.1,0.2-0.2,0.3l-0.6,0.2l0-1l0.7-0.2l0.2,0.2L130.9,55.6z"/>
		<polygon class="st246" points="132.9,54 132.9,58.1 133.5,58.1 133.6,56.2 134.3,56.1 134.4,57.9 135,57.7 134.9,53.8 134.5,53.8
			134.4,55.4 133.6,55.4 133.6,53.8 		"/>
		<path class="st246" d="M136.7,53.4l-0.6,0.1l-0.8,4.1l0.7,0l0.2-0.7l0.5,0l0.1,0.5l0.7-0.1L136.7,53.4z M136.3,56.1l0.2-1l0.3,1
			L136.3,56.1z"/>
		<polygon class="st246" points="137.9,53.2 137.8,57.2 138.4,57.1 138.4,55 139.2,57 139.8,56.9 139.7,52.9 139.1,53 139,55
			138.4,53.1 		"/>
		<path class="st246" d="M140.2,53.3l0.2-0.5l1.1-0.2l0.5,0.3l0,0.2l-0.5,0.5l-0.2-0.3l-0.5,0.2l0,0.5l1.3,1l0-0.1l0,1.2
			c0,0.1,0,0.1,0,0.2l-0.3,0.5l-1.2,0.2l-0.4-0.4l0.4-0.5l0.2,0.2l0.6-0.1l0-0.5l-1.1-0.9c-0.1-0.1-0.1-0.2-0.1-0.3L140.2,53.3z"/>
	</g>
	<path id="path3486_6_" marker-mid="none" marker-end="none" marker-start="none" class="st247" d="M124,61.1
		c-1.7,0-3.1,1.3-3.1,2.9c0,1.6,1.4,2.8,3.1,2.8c1.6,0,3-1.2,3.1-2.8c0.2,0,0.3,0,0.3-0.2c0-0.2-0.2-0.2-0.3-0.2
		C126.9,62.3,125.6,61.1,124,61.1C124,61.1,124,61.1,124,61.1z"/>
	<path id="path3488_6_" marker-mid="none" marker-end="none" marker-start="none" class="st231" d="M124.1,61.5
		c1.4,0,2.6,1.1,2.7,2.5c0,1.4-1.1,2.5-2.6,2.6c-1.4,0-2.6-1.1-2.7-2.5C121.5,62.7,122.6,61.5,124.1,61.5z"/>
	<path id="path3490_6_" marker-mid="none" marker-end="none" marker-start="none" class="st248" d="M122,64.1c0-1.3,1-2.4,2.2-2.4
		c1.3,0,2.3,1,2.3,2.3c0,1.3-1,2.4-2.2,2.4C123.1,66.4,122.1,65.4,122,64.1L122,64.1z"/>
	<g id="path3867_10_" class="st249">
		<path class="st240" d="M123.2,62.6c0.8-0.6,2.1-0.6,2.8,0.2c0.7,0.7,0.6,1.8-0.2,2.4c-0.8,0.6-2.1,0.6-2.8-0.2
			C122.3,64.3,122.3,63.2,123.2,62.6L123.2,62.6z"/>
	</g>
	<path id="path3486_5_" marker-mid="none" marker-end="none" marker-start="none" class="st247" d="M138.9,59.1
		c-1.4,0-2.6,1.3-2.6,2.8c0,1.5,1.2,2.7,2.6,2.7c1.4,0,2.5-1.2,2.6-2.6c0.2,0,0.3,0,0.3-0.2c0-0.2-0.2-0.2-0.3-0.2
		C141.4,60.1,140.3,59.1,138.9,59.1C138.9,59.1,138.9,59.1,138.9,59.1z"/>
	<path id="path3488_5_" marker-mid="none" marker-end="none" marker-start="none" class="st231" d="M139,59.4c1.2,0,2.2,1,2.3,2.3
		c0,1.3-0.9,2.4-2.2,2.4c-1.2,0-2.2-1-2.3-2.3C136.8,60.5,137.7,59.4,139,59.4z"/>
	<path id="path3490_5_" marker-mid="none" marker-end="none" marker-start="none" class="st248" d="M137.2,61.9
		c0-1.2,0.8-2.2,1.9-2.3c1.1,0,2,0.9,2,2.2c0,1.2-0.8,2.2-1.9,2.3C138.1,64,137.3,63.1,137.2,61.9L137.2,61.9z"/>
	<g id="path3867_7_" class="st249">
		<path class="st240" d="M138.2,60.4c0.7-0.6,1.8-0.5,2.4,0.2s0.5,1.7-0.2,2.3c-0.7,0.6-1.8,0.5-2.4-0.2
			C137.4,62.1,137.5,61,138.2,60.4L138.2,60.4z"/>
	</g>
	<g>
		<g>
			<path class="st143" d="M103.8,40.1l-4.3,0.3c-0.4,0-0.7-0.3-0.7-0.6v-3.6c0-0.3,0.2-0.6,0.6-0.6l4.3-0.6c0.4-0.1,0.7,0.2,0.7,0.6
				v3.9C104.3,39.8,104.1,40.1,103.8,40.1z"/>
		</g>
		<g>
			<path class="st143" d="M138.5,33.1h2.3c0.4,0,0.7,0.3,0.7,0.7v2.9c0,0.3-0.2,0.6-0.5,0.6l-2.3,0.4c-0.4,0.1-0.8-0.2-0.8-0.6v-3.3
				C137.8,33.4,138.1,33.1,138.5,33.1z"/>
		</g>
		<g>
			<path class="st171" d="M105.4,34.9l31.2-1.7c0.4,0,0.8,0.3,0.8,0.7l0.1,3.2c0,0.4-0.3,0.7-0.7,0.8c-2.9,0.3-14.6,1.7-31.2,2.3
				c-0.4,0-0.8-0.3-0.8-0.7c-0.1-1.1-0.2-2.8-0.2-3.7C104.6,35.3,105,35,105.4,34.9z"/>
		</g>
		<g>
			<path class="st246" d="M106.2,39.5c-0.1,0-0.2-0.1-0.2-0.2l-0.1-3.6c0-0.1,0.1-0.2,0.2-0.2c0.1,0,0.2,0.1,0.2,0.2l0.1,3.6
				C106.4,39.5,106.3,39.5,106.2,39.5C106.2,39.5,106.2,39.5,106.2,39.5z"/>
		</g>
		<g>
			<path class="st246" d="M106.9,39.5c-0.1,0-0.2-0.1-0.2-0.2l0-3.6c0-0.1,0.1-0.2,0.2-0.2c0,0,0,0,0,0c0.1,0,0.2,0.1,0.2,0.2l0,3.6
				C107.1,39.4,107,39.5,106.9,39.5C106.9,39.5,106.9,39.5,106.9,39.5z"/>
		</g>
		<g>
			<path class="st246" d="M107.6,39.4c-0.1,0-0.2-0.1-0.2-0.2l-0.1-3.6c0-0.1,0.1-0.2,0.2-0.2c0.1,0,0.2,0.1,0.2,0.2l0.1,3.6
				C107.8,39.3,107.7,39.4,107.6,39.4C107.6,39.4,107.6,39.4,107.6,39.4z"/>
		</g>
		<g>
			<path class="st246" d="M108.3,39.4c-0.1,0-0.2-0.1-0.2-0.2l0-3.5c0-0.1,0.1-0.2,0.2-0.2c0,0,0,0,0,0c0.1,0,0.2,0.1,0.2,0.2l0,3.5
				C108.5,39.3,108.4,39.4,108.3,39.4C108.3,39.4,108.3,39.4,108.3,39.4z"/>
		</g>
		<g>
			<path class="st246" d="M109.1,39.3c-0.1,0-0.2-0.1-0.2-0.2l-0.1-3.5c0-0.1,0.1-0.2,0.2-0.2c0.1,0,0.2,0.1,0.2,0.2l0.1,3.5
				C109.2,39.3,109.1,39.3,109.1,39.3C109.1,39.3,109.1,39.3,109.1,39.3z"/>
		</g>
		<g>
			<path class="st246" d="M109.8,39.3c-0.1,0-0.2-0.1-0.2-0.2l-0.1-3.5c0-0.1,0.1-0.2,0.2-0.2c0.1,0,0.2,0.1,0.2,0.2l0.1,3.5
				C109.9,39.2,109.8,39.3,109.8,39.3C109.8,39.3,109.8,39.3,109.8,39.3z"/>
		</g>
		<g>
			<path class="st246" d="M110.5,39.3c-0.1,0-0.2-0.1-0.2-0.2l-0.1-3.6c0-0.1,0.1-0.2,0.2-0.2c0.1,0,0.2,0.1,0.2,0.2l0.1,3.6
				C110.6,39.2,110.6,39.3,110.5,39.3C110.5,39.3,110.5,39.3,110.5,39.3z"/>
		</g>
		<g>
			<path class="st246" d="M111.2,39.3c-0.1,0-0.2-0.1-0.2-0.2l-0.1-3.6c0-0.1,0.1-0.2,0.2-0.2c0.1,0,0.2,0.1,0.2,0.2l0.1,3.6
				C111.4,39.2,111.3,39.3,111.2,39.3C111.2,39.3,111.2,39.3,111.2,39.3z"/>
		</g>
		<g>
			<path class="st246" d="M111.9,39.2c-0.1,0-0.2-0.1-0.2-0.2l-0.1-3.5c0-0.1,0.1-0.2,0.2-0.2c0.1,0,0.2,0.1,0.2,0.2l0.1,3.5
				C112.1,39.1,112,39.2,111.9,39.2C111.9,39.2,111.9,39.2,111.9,39.2z"/>
		</g>
		<g>
			<path class="st246" d="M112.6,39.2c-0.1,0-0.2-0.1-0.2-0.2l-0.1-3.6c0-0.1,0.1-0.2,0.2-0.2c0.1,0,0.2,0.1,0.2,0.2l0.1,3.6
				C112.7,39.1,112.7,39.2,112.6,39.2C112.6,39.2,112.6,39.2,112.6,39.2z"/>
		</g>
		<g>
			<path class="st246" d="M113.3,39.2c-0.1,0-0.2-0.1-0.2-0.2l-0.1-3.6c0-0.1,0.1-0.2,0.2-0.2c0,0,0,0,0,0c0.1,0,0.2,0.1,0.2,0.2
				l0.1,3.6C113.5,39.1,113.4,39.2,113.3,39.2C113.3,39.2,113.3,39.2,113.3,39.2z"/>
		</g>
		<g>
			<path class="st246" d="M114,39.1c-0.1,0-0.2-0.1-0.2-0.2l-0.1-3.6c0-0.1,0.1-0.2,0.2-0.2c0.1,0,0.2,0.1,0.2,0.2l0.1,3.6
				C114.2,39.1,114.1,39.1,114,39.1C114,39.1,114,39.1,114,39.1z"/>
		</g>
		<g>
			<path class="st246" d="M114.7,39.1c-0.1,0-0.2-0.1-0.2-0.2l-0.1-3.6c0-0.1,0.1-0.2,0.2-0.2c0.1,0,0.2,0.1,0.2,0.2l0.1,3.6
				C114.9,39,114.8,39.1,114.7,39.1C114.7,39.1,114.7,39.1,114.7,39.1z"/>
		</g>
		<g>
			<path class="st246" d="M115.4,39c-0.1,0-0.2-0.1-0.2-0.2l-0.1-3.6c0-0.1,0.1-0.2,0.2-0.2c0.1,0,0.2,0.1,0.2,0.2l0.1,3.6
				C115.6,38.9,115.5,39,115.4,39C115.4,39,115.4,39,115.4,39z"/>
		</g>
		<g>
			<path class="st246" d="M116.1,39c-0.1,0-0.2-0.1-0.2-0.2l0-3.5c0-0.1,0.1-0.2,0.2-0.2c0.1,0,0.2,0.1,0.2,0.2l0,3.5
				C116.3,38.9,116.2,39,116.1,39C116.1,39,116.1,39,116.1,39z"/>
		</g>
		<g>
			<path class="st246" d="M116.8,38.9c-0.1,0-0.2-0.1-0.2-0.2l-0.1-3.5c0-0.1,0.1-0.2,0.2-0.2c0.1,0,0.2,0.1,0.2,0.2l0.1,3.5
				C117,38.9,116.9,38.9,116.8,38.9C116.9,38.9,116.9,38.9,116.8,38.9z"/>
		</g>
		<g>
			<path class="st246" d="M117.6,38.9c-0.1,0-0.2-0.1-0.2-0.2l-0.1-3.5c0-0.1,0.1-0.2,0.2-0.2c0.1,0,0.2,0.1,0.2,0.2l0.1,3.5
				C117.7,38.8,117.6,38.9,117.6,38.9C117.6,38.9,117.6,38.9,117.6,38.9z"/>
		</g>
		<g>
			<path class="st246" d="M118.3,38.8c-0.1,0-0.2-0.1-0.2-0.2l-0.1-3.5c0-0.1,0.1-0.2,0.2-0.2c0.1,0,0.2,0.1,0.2,0.2l0.1,3.5
				C118.4,38.7,118.3,38.8,118.3,38.8C118.3,38.8,118.3,38.8,118.3,38.8z"/>
		</g>
		<g>
			<path class="st246" d="M119,38.8c-0.1,0-0.2-0.1-0.2-0.2l-0.1-3.5c0-0.1,0.1-0.2,0.2-0.2c0.1,0,0.2,0.1,0.2,0.2l0.1,3.5
				C119.2,38.7,119.1,38.8,119,38.8C119,38.8,119,38.8,119,38.8z"/>
		</g>
		<g>
			<path class="st246" d="M119.7,38.7c-0.1,0-0.2-0.1-0.2-0.2l-0.1-3.5c0-0.1,0.1-0.2,0.2-0.2c0.1,0,0.2,0.1,0.2,0.2l0.1,3.5
				C119.9,38.6,119.8,38.7,119.7,38.7C119.7,38.7,119.7,38.7,119.7,38.7z"/>
		</g>
		<g>
			<path class="st246" d="M120.4,38.6c-0.1,0-0.2-0.1-0.2-0.2l-0.1-3.5c0-0.1,0.1-0.2,0.2-0.2c0,0,0,0,0,0c0.1,0,0.2,0.1,0.2,0.2
				l0.1,3.5C120.5,38.6,120.5,38.6,120.4,38.6C120.4,38.6,120.4,38.6,120.4,38.6z"/>
		</g>
		<g>
			<path class="st246" d="M121.1,38.6c-0.1,0-0.2-0.1-0.2-0.2l-0.1-3.4c0-0.1,0.1-0.2,0.2-0.2c0.1,0,0.2,0.1,0.2,0.2l0.1,3.4
				C121.2,38.5,121.2,38.6,121.1,38.6C121.1,38.6,121.1,38.6,121.1,38.6z"/>
		</g>
		<g>
			<path class="st246" d="M124.4,38.3c-0.1,0-0.2-0.1-0.2-0.2l-0.1-3.4c0-0.1,0.1-0.2,0.2-0.2c0.1,0,0.2,0.1,0.2,0.2l0.1,3.4
				C124.6,38.2,124.5,38.3,124.4,38.3C124.4,38.3,124.4,38.3,124.4,38.3z"/>
		</g>
		<g>
			<path class="st246" d="M125.1,38.3c-0.1,0-0.2-0.1-0.2-0.2l0-3.3c0-0.1,0.1-0.2,0.2-0.2c0,0,0,0,0,0c0.1,0,0.2,0.1,0.2,0.2l0,3.3
				C125.2,38.2,125.2,38.3,125.1,38.3C125.1,38.3,125.1,38.3,125.1,38.3z"/>
		</g>
		<g>
			<path class="st246" d="M125.8,38.2c-0.1,0-0.2-0.1-0.2-0.2l-0.1-3.3c0-0.1,0.1-0.2,0.2-0.2c0,0,0,0,0,0c0.1,0,0.2,0.1,0.2,0.2
				l0.1,3.3C125.9,38.1,125.9,38.2,125.8,38.2C125.8,38.2,125.8,38.2,125.8,38.2z"/>
		</g>
		<g>
			<path class="st246" d="M126.5,38.2c-0.1,0-0.2-0.1-0.2-0.2l0-3.3c0-0.1,0.1-0.2,0.2-0.2c0.1,0,0.2,0.1,0.2,0.2l0,3.3
				C126.6,38.1,126.6,38.2,126.5,38.2C126.5,38.2,126.5,38.2,126.5,38.2z"/>
		</g>
		<g>
			<path class="st246" d="M127.2,38.1c-0.1,0-0.2-0.1-0.2-0.2l-0.1-3.3c0-0.1,0.1-0.2,0.2-0.2c0,0,0,0,0,0c0.1,0,0.2,0.1,0.2,0.2
				l0.1,3.3C127.3,38.1,127.3,38.1,127.2,38.1C127.2,38.1,127.2,38.1,127.2,38.1z"/>
		</g>
		<g>
			<path class="st246" d="M127.9,38.1c-0.1,0-0.2-0.1-0.2-0.2l-0.1-3.2c0-0.1,0.1-0.2,0.2-0.2c0,0,0,0,0,0c0.1,0,0.2,0.1,0.2,0.2
				l0.1,3.2C128,38,128,38.1,127.9,38.1C127.9,38.1,127.9,38.1,127.9,38.1z"/>
		</g>
		<g>
			<path class="st246" d="M128.5,38.1c-0.1,0-0.2-0.1-0.2-0.2l-0.1-3.3c0-0.1,0.1-0.2,0.2-0.2c0,0,0,0,0,0c0.1,0,0.2,0.1,0.2,0.2
				l0.1,3.3C128.7,38,128.6,38.1,128.5,38.1C128.5,38.1,128.5,38.1,128.5,38.1z"/>
		</g>
		<g>
			<path class="st246" d="M129.2,38c-0.1,0-0.2-0.1-0.2-0.2l-0.1-3.3c0-0.1,0.1-0.2,0.2-0.2c0.1,0,0.2,0.1,0.2,0.2l0.1,3.3
				C129.4,37.9,129.3,38,129.2,38C129.2,38,129.2,38,129.2,38z"/>
		</g>
		<g>
			<path class="st246" d="M129.9,37.9c-0.1,0-0.2-0.1-0.2-0.2l-0.1-3.2c0-0.1,0.1-0.2,0.2-0.2c0,0,0,0,0,0c0.1,0,0.2,0.1,0.2,0.2
				l0.1,3.2C130.1,37.9,130,37.9,129.9,37.9C129.9,37.9,129.9,37.9,129.9,37.9z"/>
		</g>
		<g>
			<path class="st246" d="M130.6,37.8c-0.1,0-0.1,0-0.1-0.1l-0.1-3.2c0-0.1,0-0.1,0.1-0.1c0,0,0,0,0,0c0.1,0,0.1,0,0.1,0.1l0.1,3.2
				C130.7,37.8,130.7,37.8,130.6,37.8C130.6,37.8,130.6,37.8,130.6,37.8z"/>
		</g>
		<g>
			<path class="st246" d="M131.2,37.8c-0.1,0-0.1,0-0.1-0.1l-0.1-3.2c0-0.1,0-0.1,0.1-0.1c0.1,0,0.1,0,0.1,0.1l0.1,3.2
				C131.3,37.8,131.3,37.8,131.2,37.8C131.2,37.8,131.2,37.8,131.2,37.8z"/>
		</g>
		<g>
			<path class="st246" d="M121.7,38.6c-0.1,0-0.2-0.1-0.2-0.2l-0.1-3.5c0-0.1,0.1-0.2,0.2-0.2c0.1,0,0.2,0.1,0.2,0.2l0.1,3.5
				C121.9,38.5,121.8,38.6,121.7,38.6C121.7,38.6,121.7,38.6,121.7,38.6z"/>
		</g>
		<g>
			<path class="st246" d="M131.7,37.8c-0.1,0-0.1,0-0.1-0.1l0-3.3c0-0.1,0-0.1,0.1-0.1c0,0,0,0,0,0c0.1,0,0.1,0,0.1,0.1l0,3.3
				C131.8,37.8,131.8,37.8,131.7,37.8z"/>
		</g>
		<g>
			<path class="st246" d="M132.2,37.8c-0.1,0-0.1,0-0.1-0.1l0-3.3c0-0.1,0-0.1,0.1-0.1s0.1,0,0.1,0.1l0,3.3
				C132.3,37.7,132.3,37.8,132.2,37.8z"/>
		</g>
		<g>
			<path class="st246" d="M132.7,37.7L132.7,37.7c-0.1,0-0.1,0-0.1-0.1l0-3.4c0-0.1,0-0.1,0.1-0.1h0c0.1,0,0.1,0,0.1,0.1l0,3.4
				C132.8,37.7,132.8,37.7,132.7,37.7z"/>
		</g>
		<g>
			<path class="st246" d="M133.2,37.6c-0.1,0-0.1,0-0.1-0.1l-0.1-3.3c0-0.1,0-0.1,0.1-0.1c0.1,0,0.1,0,0.1,0.1l0.1,3.3
				C133.4,37.6,133.3,37.6,133.2,37.6C133.2,37.6,133.2,37.6,133.2,37.6z"/>
		</g>
		<g>
			<path class="st246" d="M133.7,37.6c-0.1,0-0.1,0-0.1-0.1l-0.1-3.3c0-0.1,0-0.1,0.1-0.1c0,0,0,0,0,0c0.1,0,0.1,0,0.1,0.1l0.1,3.3
				C133.9,37.5,133.8,37.6,133.7,37.6C133.7,37.6,133.7,37.6,133.7,37.6z"/>
		</g>
		<g>
			<path class="st246" d="M134.2,37.5c-0.1,0-0.1,0-0.1-0.1l-0.1-3.2c0-0.1,0-0.1,0.1-0.1c0.1,0,0.1,0,0.1,0.1l0.1,3.2
				C134.4,37.4,134.3,37.5,134.2,37.5C134.2,37.5,134.2,37.5,134.2,37.5z"/>
		</g>
		<g>
			<path class="st246" d="M134.7,37.5c-0.1,0-0.1,0-0.1-0.1l-0.1-3.3c0-0.1,0-0.1,0.1-0.1c0.1,0,0.1,0,0.1,0.1l0.1,3.3
				C134.8,37.5,134.8,37.5,134.7,37.5C134.7,37.5,134.7,37.5,134.7,37.5z"/>
		</g>
		<g>
			<path class="st246" d="M135.2,37.4c-0.1,0-0.1,0-0.1-0.1l-0.1-3.3c0-0.1,0-0.1,0.1-0.1c0,0,0,0,0,0c0.1,0,0.1,0,0.1,0.1l0.1,3.3
				C135.3,37.4,135.3,37.4,135.2,37.4C135.2,37.4,135.2,37.4,135.2,37.4z"/>
		</g>
		<g>
			<path class="st246" d="M135.7,37.4c-0.1,0-0.1,0-0.1-0.1l-0.1-3.2c0-0.1,0-0.1,0.1-0.1c0,0,0,0,0,0c0.1,0,0.1,0,0.1,0.1l0.1,3.2
				C135.9,37.3,135.8,37.4,135.7,37.4C135.7,37.4,135.7,37.4,135.7,37.4z"/>
		</g>
		<g>
			<path class="st246" d="M136.2,37.3c-0.1,0-0.1,0-0.1-0.1L136,34c0-0.1,0-0.1,0.1-0.1c0,0,0,0,0,0c0.1,0,0.1,0,0.1,0.1l0.1,3.2
				C136.3,37.3,136.3,37.3,136.2,37.3C136.2,37.3,136.2,37.3,136.2,37.3z"/>
		</g>
		<g>
			<path class="st246" d="M136.7,37.3c-0.1,0-0.1,0-0.1-0.1l-0.1-3.2c0-0.1,0-0.1,0.1-0.1c0,0,0,0,0,0c0.1,0,0.1,0,0.1,0.1l0.1,3.2
				C136.8,37.2,136.8,37.3,136.7,37.3C136.7,37.3,136.7,37.3,136.7,37.3z"/>
		</g>
	</g>
	<path id="path3486_7_" marker-mid="none" marker-end="none" marker-start="none" class="st247" d="M110.2,47.1
		c-2.9,0.1-5.3,2.3-5.3,5c0,2.7,2.4,4.9,5.3,4.8c2.8-0.1,5.1-2.1,5.2-4.7c0.3,0,0.6-0.1,0.6-0.4c0-0.3-0.3-0.4-0.6-0.4
		c-0.2-2.4-2.4-4.3-5.1-4.3C110.2,47.1,110.2,47.1,110.2,47.1z"/>
	<path id="path3488_7_" marker-mid="none" marker-end="none" marker-start="none" class="st231" d="M110.3,47.7
		c2.5-0.1,4.5,1.8,4.6,4.2c0.1,2.4-1.9,4.3-4.4,4.4s-4.5-1.8-4.6-4.2C105.9,49.7,107.9,47.7,110.3,47.7z"/>
	<path id="path3490_7_" marker-mid="none" marker-end="none" marker-start="none" class="st248" d="M106.9,52.1c0-2.2,1.7-4,3.8-4.1
		c2.1,0,3.9,1.7,4,3.9c0,2.2-1.7,4-3.8,4.1C108.7,56.1,106.9,54.3,106.9,52.1L106.9,52.1z"/>
	<g id="path3867_11_" class="st249">
		<path class="st240" d="M108.8,49.6c1.4-1.1,3.6-0.9,4.8,0.3c1.2,1.2,1.1,3.1-0.3,4.2s-3.6,0.9-4.8-0.3
			C107.2,52.5,107.4,50.6,108.8,49.6L108.8,49.6z"/>
	</g>
	<path id="path3486_8_" marker-mid="none" marker-end="none" marker-start="none" class="st247" d="M144.1,51.2
		c1.6-0.1,2.8-2,2.7-4.2c-0.1-2.2-1.4-3.9-3-3.8c-1.5,0.1-2.7,1.9-2.7,4c-0.2,0-0.3,0.1-0.3,0.4c0,0.2,0.2,0.3,0.3,0.3
		C141.4,49.7,142.6,51.2,144.1,51.2C144.1,51.2,144.1,51.2,144.1,51.2z"/>
	<path id="path3488_8_" marker-mid="none" marker-end="none" marker-start="none" class="st231" d="M144.2,43.7
		c1.3,0,2.5,1.5,2.5,3.4c0,1.9-1,3.5-2.4,3.6c-1.3,0-2.5-1.5-2.5-3.4C141.8,45.3,142.9,43.7,144.2,43.7z"/>
	<path id="path3490_8_" marker-mid="none" marker-end="none" marker-start="none" class="st248" d="M142.3,47.3
		c0-1.8,0.9-3.3,2.1-3.3s2.1,1.4,2.2,3.2c0,1.8-0.9,3.3-2.1,3.3C143.3,50.5,142.3,49.1,142.3,47.3L142.3,47.3z"/>
	<g id="path3867_14_" class="st249">
		<path class="st240" d="M143.4,45.2c0.8-0.9,2-0.8,2.6,0.2c0.7,1,0.6,2.5-0.2,3.4c-0.8,0.9-2,0.8-2.6-0.2
			C142.5,47.6,142.6,46.1,143.4,45.2L143.4,45.2z"/>
	</g>
</g>
<g id="Layer_6">
</g>
<g id="Layer_4">
</g>
</svg>
